<?xml version="1.0" encoding="UTF-8"?>
<!DOCTYPE svg PUBLIC "-//W3C//DTD SVG 1.1//EN" "http://www.w3.org/Graphics/SVG/1.1/DTD/svg11.dtd">
<svg xmlns="http://www.w3.org/2000/svg" version="1.1" width="180px" height="180px" style="shape-rendering:geometricPrecision; text-rendering:geometricPrecision; image-rendering:optimizeQuality; fill-rule:evenodd; clip-rule:evenodd" xmlns:xlink="http://www.w3.org/1999/xlink">
<g><path style="opacity:0.29" fill="#eeb4aa" d="M 84.5,46.5 C 83.3127,44.9275 82.3127,43.2608 81.5,41.5C 81.1667,39.5 80.8333,37.5 80.5,35.5C 77.6257,36.3635 74.9591,37.6968 72.5,39.5C 69.3075,38.6344 66.6408,36.9677 64.5,34.5C 61.8338,31.0012 58.6671,28.0012 55,25.5C 54.1301,26.1079 53.6301,26.9412 53.5,28C 54.7491,32.078 55.4158,36.2447 55.5,40.5C 53.7182,35.7444 52.8849,30.7444 53,25.5C 54.8684,24.3281 56.7017,24.4947 58.5,26C 62.7201,30.723 67.3867,34.8897 72.5,38.5C 74.7267,36.3932 76.7267,34.0599 78.5,31.5C 82.0498,35.8033 84.0498,40.8033 84.5,46.5 Z"/></g>
<g><path style="opacity:0.31" fill="#e4b6b1" d="M 108.5,33.5 C 107.5,33.5 106.5,33.5 105.5,33.5C 106.5,30.8333 107.5,30.8333 108.5,33.5 Z"/></g>
<g><path style="opacity:0.09" fill="#eab7af" d="M 105.5,33.5 C 105.573,35.0269 104.906,36.0269 103.5,36.5C 103.427,34.9731 104.094,33.9731 105.5,33.5 Z"/></g>
<g><path style="opacity:0.643" fill="#e8a296" d="M 108.5,33.5 C 110.874,36.6859 111.874,40.3526 111.5,44.5C 109.742,41.1456 108.742,37.479 108.5,33.5 Z"/></g>
<g><path style="opacity:0.271" fill="#f1c6bf" d="M 103.5,37.5 C 102.833,41.5408 100.5,43.5408 96.5,43.5C 96.5,43.1667 96.5,42.8333 96.5,42.5C 99.0561,41.2977 101.389,39.631 103.5,37.5 Z"/></g>
<g><path style="opacity:1" fill="#e23009" d="M 105.5,33.5 C 106.5,33.5 107.5,33.5 108.5,33.5C 108.742,37.479 109.742,41.1456 111.5,44.5C 111.881,52.0383 115.881,55.3716 123.5,54.5C 124.167,54.5 124.5,54.8333 124.5,55.5C 124.784,57.4147 124.451,59.0813 123.5,60.5C 123.714,58.8561 123.38,57.3561 122.5,56C 119.123,55.5483 115.789,54.8816 112.5,54C 110.508,53.4257 109.008,52.259 108,50.5C 107.333,52.5 107.333,54.5 108,56.5C 110.621,56.2964 113.455,56.2964 116.5,56.5C 116.5,58.5 116.5,60.5 116.5,62.5C 113.873,61.9084 111.206,61.5751 108.5,61.5C 108.5,63.1667 108.5,64.8333 108.5,66.5C 108.5,68.1667 108.5,69.8333 108.5,71.5C 107.691,73.0276 107.024,74.6943 106.5,76.5C 105.272,75.6935 104.272,74.6935 103.5,73.5C 102.506,69.8501 103.34,69.8501 106,73.5C 106.499,68.1771 106.666,62.8437 106.5,57.5C 105.167,57.5 103.833,57.5 102.5,57.5C 100.819,54.418 100.152,51.0847 100.5,47.5C 99.5,47.5 98.5,47.5 97.5,47.5C 97.7989,49.604 97.4656,51.604 96.5,53.5C 95.5258,51.2573 95.1924,48.924 95.5,46.5C 99.0048,46.3059 99.3382,45.3059 96.5,43.5C 100.5,43.5408 102.833,41.5408 103.5,37.5C 103.5,37.1667 103.5,36.8333 103.5,36.5C 104.906,36.0269 105.573,35.0269 105.5,33.5 Z"/></g>
<g><path style="opacity:0.11" fill="#f3cbc5" d="M 95.5,41.5 C 94.2921,40.7659 92.9587,40.4326 91.5,40.5C 91.7373,41.791 91.404,42.791 90.5,43.5C 90.6798,37.8985 92.3464,37.2318 95.5,41.5 Z"/></g>
<g><path style="opacity:0.999" fill="#e52c09" d="M 64.5,34.5 C 66.6408,36.9677 69.3075,38.6344 72.5,39.5C 74.9591,37.6968 77.6257,36.3635 80.5,35.5C 80.8333,37.5 81.1667,39.5 81.5,41.5C 81.3651,44.4175 82.0318,47.0842 83.5,49.5C 81.8049,48.1736 80.4716,48.5069 79.5,50.5C 78.8333,50.5 78.1667,50.5 77.5,50.5C 77.5,48.5 77.5,46.5 77.5,44.5C 77.67,43.1779 77.3366,42.0113 76.5,41C 73.905,40.7744 71.405,40.2744 69,39.5C 67.7453,40.2106 66.5786,41.044 65.5,42C 66.7908,45.0254 66.1242,45.3587 63.5,43C 63.0426,42.586 62.7093,42.086 62.5,41.5C 63.4911,40.3348 64.4911,39.1681 65.5,38C 65.0109,36.8615 64.6775,35.6948 64.5,34.5 Z"/></g>
<g><path style="opacity:1" fill="#e82b02" d="M 64.5,34.5 C 64.6775,35.6948 65.0109,36.8615 65.5,38C 64.4911,39.1681 63.4911,40.3348 62.5,41.5C 62.7093,42.086 63.0426,42.586 63.5,43C 66.1242,45.3587 66.7908,45.0254 65.5,42C 66.5786,41.044 67.7453,40.2106 69,39.5C 71.405,40.2744 73.905,40.7744 76.5,41C 77.3366,42.0113 77.67,43.1779 77.5,44.5C 74.7149,45.0171 72.0482,45.8505 69.5,47C 71.7518,48.0874 73.0851,49.9208 73.5,52.5C 74.1924,51.9747 74.6924,51.3081 75,50.5C 75.3283,53.2071 74.995,55.8738 74,58.5C 72.7308,57.0953 72.2308,55.4286 72.5,53.5C 68.3284,51.8677 65.495,48.8677 64,44.5C 64.4441,49.7129 65.7774,54.7129 68,59.5C 68.6708,60.2524 69.5041,60.5858 70.5,60.5C 70.719,61.675 70.3857,62.675 69.5,63.5C 68.1502,62.0499 66.4835,61.3832 64.5,61.5C 64.6621,59.4727 64.4955,57.4727 64,55.5C 61.5571,56.2853 59.0571,56.1186 56.5,55C 59.534,53.4331 60.8674,50.9331 60.5,47.5C 60.2922,44.002 59.4588,40.6687 58,37.5C 57.6667,37.8333 57.3333,38.1667 57,38.5C 56.118,34.9733 56.618,34.3066 58.5,36.5C 59.8139,35.6872 60.9805,34.6872 62,33.5C 62.6708,34.2524 63.5041,34.5858 64.5,34.5 Z"/></g>
<g><path style="opacity:1" fill="#e32b04" d="M 77.5,44.5 C 77.5,46.5 77.5,48.5 77.5,50.5C 77.3927,54.9173 76.7261,59.2506 75.5,63.5C 73.6667,61.1667 71.8333,58.8333 70,56.5C 69.805,57.8193 69.9717,59.1526 70.5,60.5C 69.5041,60.5858 68.6708,60.2524 68,59.5C 65.7774,54.7129 64.4441,49.7129 64,44.5C 65.495,48.8677 68.3284,51.8677 72.5,53.5C 72.2308,55.4286 72.7308,57.0953 74,58.5C 74.995,55.8738 75.3283,53.2071 75,50.5C 74.6924,51.3081 74.1924,51.9747 73.5,52.5C 73.0851,49.9208 71.7518,48.0874 69.5,47C 72.0482,45.8505 74.7149,45.0171 77.5,44.5 Z"/></g>
<g><path style="opacity:0.043" fill="#eea89a" d="M 55.5,40.5 C 57.2985,44.2191 57.7985,48.2191 57,52.5C 55.7365,54.607 53.9032,55.607 51.5,55.5C 52.6883,54.6364 53.8549,53.6364 55,52.5C 55.4988,48.5138 55.6655,44.5138 55.5,40.5 Z"/></g>
<g><path style="opacity:1" fill="#ea2b01" d="M 96.5,43.5 C 99.3382,45.3059 99.0048,46.3059 95.5,46.5C 95.1924,48.924 95.5258,51.2573 96.5,53.5C 97.4656,51.604 97.7989,49.604 97.5,47.5C 98.5,47.5 99.5,47.5 100.5,47.5C 100.152,51.0847 100.819,54.418 102.5,57.5C 101.127,57.3433 99.7932,57.51 98.5,58C 97.2596,60.7437 95.2596,62.577 92.5,63.5C 92.7863,61.7231 93.4529,60.0564 94.5,58.5C 92.1915,53.6992 91.8582,48.6992 93.5,43.5C 94.5,43.5 95.5,43.5 96.5,43.5 Z"/></g>
<g><path style="opacity:0.788" fill="#ec9e8e" d="M 111.5,44.5 C 112.933,46.5191 114.267,48.6857 115.5,51C 118.476,51.7048 121.142,52.8714 123.5,54.5C 115.881,55.3716 111.881,52.0383 111.5,44.5 Z"/></g>
<g><path style="opacity:1" fill="#e2320e" d="M 95.5,41.5 C 96.1667,41.5 96.5,41.8333 96.5,42.5C 96.5,42.8333 96.5,43.1667 96.5,43.5C 95.5,43.5 94.5,43.5 93.5,43.5C 91.8582,48.6992 92.1915,53.6992 94.5,58.5C 93.4529,60.0564 92.7863,61.7231 92.5,63.5C 91.5386,65.2646 91.2053,67.2646 91.5,69.5C 91.1667,69.5 90.8333,69.5 90.5,69.5C 90.7678,67.901 90.4345,66.5676 89.5,65.5C 89.6495,64.448 89.4828,63.448 89,62.5C 85.0051,60.6238 82.5051,57.6238 81.5,53.5C 81.8029,51.8857 82.4695,50.5523 83.5,49.5C 82.0318,47.0842 81.3651,44.4175 81.5,41.5C 82.3127,43.2608 83.3127,44.9275 84.5,46.5C 84.1201,48.698 84.7868,50.3646 86.5,51.5C 86.2308,53.4286 86.7308,55.0953 88,56.5C 88.4643,55.9056 88.631,55.2389 88.5,54.5C 89.2216,54.0825 89.7216,53.4158 90,52.5C 90.498,49.5184 90.6646,46.5184 90.5,43.5C 91.404,42.791 91.7373,41.791 91.5,40.5C 92.9587,40.4326 94.2921,40.7659 95.5,41.5 Z"/></g>
<g><path style="opacity:0.443" fill="#efb5ac" d="M 86.5,51.5 C 87.1667,52.5 87.8333,53.5 88.5,54.5C 88.631,55.2389 88.4643,55.9056 88,56.5C 86.7308,55.0953 86.2308,53.4286 86.5,51.5 Z"/></g>
<g><path style="opacity:0.478" fill="#edbbb1" d="M 90.5,43.5 C 90.6646,46.5184 90.498,49.5184 90,52.5C 89.7216,53.4158 89.2216,54.0825 88.5,54.5C 88.9309,50.6634 89.5975,46.9968 90.5,43.5 Z"/></g>
<g><path style="opacity:0.525" fill="#eebdb3" d="M 84.5,46.5 C 85.9313,47.7804 86.5979,49.4471 86.5,51.5C 84.7868,50.3646 84.1201,48.698 84.5,46.5 Z"/></g>
<g><path style="opacity:0.49" fill="#e4b3ae" d="M 51.5,55.5 C 50.791,56.404 49.791,56.7373 48.5,56.5C 48.5,57.8333 48.5,59.1667 48.5,60.5C 47.5489,59.0813 47.2155,57.4147 47.5,55.5C 48.8333,55.5 50.1667,55.5 51.5,55.5 Z"/></g>
<g><path style="opacity:1" fill="#e32e0a" d="M 64.5,34.5 C 63.5041,34.5858 62.6708,34.2524 62,33.5C 60.9805,34.6872 59.8139,35.6872 58.5,36.5C 56.618,34.3066 56.118,34.9733 57,38.5C 57.3333,38.1667 57.6667,37.8333 58,37.5C 59.4588,40.6687 60.2922,44.002 60.5,47.5C 60.8674,50.9331 59.534,53.4331 56.5,55C 59.0571,56.1186 61.5571,56.2853 64,55.5C 64.4955,57.4727 64.6621,59.4727 64.5,61.5C 66.4835,61.3832 68.1502,62.0499 69.5,63.5C 70.3857,62.675 70.719,61.675 70.5,60.5C 73.559,62.4462 73.8924,64.6128 71.5,67C 72.756,67.4169 73.4226,68.2502 73.5,69.5C 70.4271,68.801 67.4271,67.801 64.5,66.5C 63.4756,67.8518 62.4756,69.1851 61.5,70.5C 60.8333,70.5 60.1667,70.5 59.5,70.5C 59.5,68.5 58.5,67.5 56.5,67.5C 54.4309,64.4275 51.7642,62.0941 48.5,60.5C 48.5,59.1667 48.5,57.8333 48.5,56.5C 49.791,56.7373 50.791,56.404 51.5,55.5C 53.9032,55.607 55.7365,54.607 57,52.5C 57.7985,48.2191 57.2985,44.2191 55.5,40.5C 55.4158,36.2447 54.7491,32.078 53.5,28C 53.6301,26.9412 54.1301,26.1079 55,25.5C 58.6671,28.0012 61.8338,31.0012 64.5,34.5 Z"/></g>
<g><path style="opacity:1" fill="#eb3905" d="M 123.5,60.5 C 122.655,61.6715 121.989,63.0048 121.5,64.5C 117.13,65.1022 112.797,65.7689 108.5,66.5C 108.5,64.8333 108.5,63.1667 108.5,61.5C 111.206,61.5751 113.873,61.9084 116.5,62.5C 116.5,60.5 116.5,58.5 116.5,56.5C 113.455,56.2964 110.621,56.2964 108,56.5C 107.333,54.5 107.333,52.5 108,50.5C 109.008,52.259 110.508,53.4257 112.5,54C 115.789,54.8816 119.123,55.5483 122.5,56C 123.38,57.3561 123.714,58.8561 123.5,60.5 Z"/></g>
<g><path style="opacity:1" fill="#ea2f02" d="M 83.5,49.5 C 82.4695,50.5523 81.8029,51.8857 81.5,53.5C 82.5051,57.6238 85.0051,60.6238 89,62.5C 89.4828,63.448 89.6495,64.448 89.5,65.5C 88.5291,68.6668 86.5291,71.0001 83.5,72.5C 82.3192,70.8647 82.3192,69.198 83.5,67.5C 82.675,66.6143 81.675,66.281 80.5,66.5C 80.4208,65.0695 80.7542,63.7362 81.5,62.5C 79.7108,59.4439 79.0441,56.1106 79.5,52.5C 79.5,51.8333 79.5,51.1667 79.5,50.5C 80.4716,48.5069 81.8049,48.1736 83.5,49.5 Z"/></g>
<g><path style="opacity:1" fill="#cb2104" d="M 77.5,50.5 C 78.1667,50.5 78.8333,50.5 79.5,50.5C 79.5,51.1667 79.5,51.8333 79.5,52.5C 78.3483,57.9846 78.1816,63.6513 79,69.5C 81.9981,73.9919 85.1648,78.3252 88.5,82.5C 87.2348,84.3569 87.5682,86.0236 89.5,87.5C 88.5,87.5 87.5,87.5 86.5,87.5C 85.4097,86.1429 84.0764,85.1429 82.5,84.5C 83.9778,84.762 85.3112,84.4287 86.5,83.5C 85.5333,80.8708 83.8666,78.8708 81.5,77.5C 80.4638,73.1304 77.7971,70.4637 73.5,69.5C 73.4226,68.2502 72.756,67.4169 71.5,67C 73.8924,64.6128 73.559,62.4462 70.5,60.5C 69.9717,59.1526 69.805,57.8193 70,56.5C 71.8333,58.8333 73.6667,61.1667 75.5,63.5C 76.7261,59.2506 77.3927,54.9173 77.5,50.5 Z"/></g>
<g><path style="opacity:0.396" fill="#f0bcb5" d="M 48.5,60.5 C 51.7642,62.0941 54.4309,64.4275 56.5,67.5C 53.2358,65.9059 50.5691,63.5725 48.5,60.5 Z"/></g>
<g><path style="opacity:0.09" fill="#f9e8e6" d="M 124.5,55.5 C 125.71,58.9298 125.376,62.2631 123.5,65.5C 123.5,63.8333 123.5,62.1667 123.5,60.5C 124.451,59.0813 124.784,57.4147 124.5,55.5 Z"/></g>
<g><path style="opacity:1" fill="#ec4206" d="M 121.5,64.5 C 120.078,69.3313 118.411,73.998 116.5,78.5C 116.657,77.1266 116.49,75.7932 116,74.5C 115.15,75.4239 114.15,75.4239 113,74.5C 111.989,75.0556 111.156,75.7222 110.5,76.5C 109.032,75.2209 108.365,73.5542 108.5,71.5C 108.5,69.8333 108.5,68.1667 108.5,66.5C 112.797,65.7689 117.13,65.1022 121.5,64.5 Z"/></g>
<g><path style="opacity:1" fill="#ea3b03" d="M 102.5,57.5 C 103.833,57.5 105.167,57.5 106.5,57.5C 106.666,62.8437 106.499,68.1771 106,73.5C 103.34,69.8501 102.506,69.8501 103.5,73.5C 103.541,77.2434 102.874,77.4101 101.5,74C 94.3293,73.0064 91.3293,76.1731 92.5,83.5C 91.5139,79.03 91.1805,74.3633 91.5,69.5C 91.2053,67.2646 91.5386,65.2646 92.5,63.5C 95.2596,62.577 97.2596,60.7437 98.5,58C 99.7932,57.51 101.127,57.3433 102.5,57.5 Z"/></g>
<g><path style="opacity:0.427" fill="#f0c1ba" d="M 56.5,67.5 C 58.5,67.5 59.5,68.5 59.5,70.5C 58.1667,69.8333 57.1667,68.8333 56.5,67.5 Z"/></g>
<g><path style="opacity:1" fill="#e93a06" d="M 79.5,52.5 C 79.0441,56.1106 79.7108,59.4439 81.5,62.5C 80.7542,63.7362 80.4208,65.0695 80.5,66.5C 81.675,66.281 82.675,66.6143 83.5,67.5C 82.3192,69.198 82.3192,70.8647 83.5,72.5C 86.5291,71.0001 88.5291,68.6668 89.5,65.5C 90.4345,66.5676 90.7678,67.901 90.5,69.5C 90.6659,74.5111 90.4993,79.5111 90,84.5C 89.2828,83.9558 88.7828,83.2891 88.5,82.5C 85.1648,78.3252 81.9981,73.9919 79,69.5C 78.1816,63.6513 78.3483,57.9846 79.5,52.5 Z"/></g>
<g><path style="opacity:0.545" fill="#e09f95" d="M 123.5,65.5 C 123.084,70.4932 122.751,75.4932 122.5,80.5C 121.527,78.0521 121.194,75.3854 121.5,72.5C 121.41,69.8478 122.076,67.5145 123.5,65.5 Z"/></g>
<g><path style="opacity:1" fill="#e7390c" d="M 73.5,69.5 C 77.7971,70.4637 80.4638,73.1304 81.5,77.5C 79.233,79.7869 77.5663,79.6202 76.5,77C 79.3216,74.4695 78.8216,72.9695 75,72.5C 72.3654,74.298 69.8654,76.298 67.5,78.5C 65.6175,79.0243 63.7842,79.6909 62,80.5C 60.3485,80.1402 58.6818,79.8068 57,79.5C 54.8055,82.0371 51.9721,83.0371 48.5,82.5C 48.7373,81.209 48.404,80.209 47.5,79.5C 47.5,78.8333 47.1667,78.5 46.5,78.5C 46.5,77.5 46.5,76.5 46.5,75.5C 49.5,75.5 52.5,75.5 55.5,75.5C 58.1667,75.5 60.8333,75.5 63.5,75.5C 64.0431,75.44 64.3764,75.1067 64.5,74.5C 63.4756,73.1482 62.4756,71.8149 61.5,70.5C 62.4756,69.1851 63.4756,67.8518 64.5,66.5C 67.4271,67.801 70.4271,68.801 73.5,69.5 Z"/></g>
<g><path style="opacity:0.294" fill="#f3c2bb" d="M 59.5,70.5 C 60.1667,70.5 60.8333,70.5 61.5,70.5C 62.4756,71.8149 63.4756,73.1482 64.5,74.5C 64.3764,75.1067 64.0431,75.44 63.5,75.5C 62.1667,73.8333 60.8333,72.1667 59.5,70.5 Z"/></g>
<g><path style="opacity:1" fill="#e83c06" d="M 81.5,77.5 C 83.8666,78.8708 85.5333,80.8708 86.5,83.5C 85.3112,84.4287 83.9778,84.762 82.5,84.5C 78.9231,83.421 75.2564,82.7543 71.5,82.5C 68.8688,82.3207 66.5355,82.9873 64.5,84.5C 63.0317,82.4683 61.365,82.635 59.5,85C 59.67,86.5695 60.0033,88.4028 60.5,90.5C 62.1667,90.5 63.8333,90.5 65.5,90.5C 65.5774,91.7498 66.244,92.5831 67.5,93C 66.2625,93.2321 65.2625,93.7321 64.5,94.5C 62.5,94.5 60.5,94.5 58.5,94.5C 58.5,93.1667 58.5,91.8333 58.5,90.5C 56.8333,90.5 55.1667,90.5 53.5,90.5C 53.741,87.001 52.9076,86.6677 51,89.5C 50.5814,88.3279 49.9147,87.3279 49,86.5C 48.6948,88.5568 48.6948,90.5568 49,92.5C 47.1435,94.4062 44.9769,95.2395 42.5,95C 43.2309,92.4054 44.8975,90.7387 47.5,90C 45.6804,88.3115 43.6804,88.1448 41.5,89.5C 41.8333,88.8333 42.1667,88.1667 42.5,87.5C 46.5727,86.413 48.2394,83.7464 47.5,79.5C 48.404,80.209 48.7373,81.209 48.5,82.5C 51.9721,83.0371 54.8055,82.0371 57,79.5C 58.6818,79.8068 60.3485,80.1402 62,80.5C 63.7842,79.6909 65.6175,79.0243 67.5,78.5C 69.8654,76.298 72.3654,74.298 75,72.5C 78.8216,72.9695 79.3216,74.4695 76.5,77C 77.5663,79.6202 79.233,79.7869 81.5,77.5 Z"/></g>
<g><path style="opacity:0.173" fill="#f8dad7" d="M 55.5,75.5 C 52.5,75.5 49.5,75.5 46.5,75.5C 46.5,76.5 46.5,77.5 46.5,78.5C 45.5655,77.4324 45.2322,76.099 45.5,74.5C 49.0419,74.1872 52.3752,74.5206 55.5,75.5 Z"/></g>
<g><path style="opacity:1" fill="#ec4a04" d="M 103.5,73.5 C 104.272,74.6935 105.272,75.6935 106.5,76.5C 107.222,76.9175 107.722,77.5842 108,78.5C 108.5,86.1594 108.666,93.8261 108.5,101.5C 107.5,102.833 106.5,102.833 105.5,101.5C 106.8,99.777 107.467,97.6103 107.5,95C 107.281,90.4689 106.781,85.9689 106,81.5C 105.027,83.3921 104.36,85.3921 104,87.5C 103.667,86.5 103.333,85.5 103,84.5C 102.333,85.8333 101.667,85.8333 101,84.5C 99.7387,87.8204 98.072,88.1537 96,85.5C 95.7645,87.1193 94.9311,88.1193 93.5,88.5C 92.5489,87.0813 92.2155,85.4147 92.5,83.5C 91.3293,76.1731 94.3293,73.0064 101.5,74C 102.874,77.4101 103.541,77.2434 103.5,73.5 Z"/></g>
<g><path style="opacity:0.573" fill="#c2583f" d="M 121.5,72.5 C 121.194,75.3854 121.527,78.0521 122.5,80.5C 123.167,80.5 123.5,80.8333 123.5,81.5C 124.167,82.1667 124.833,82.8333 125.5,83.5C 124.041,83.5674 122.708,83.2341 121.5,82.5C 120.218,79.0641 120.218,75.7307 121.5,72.5 Z"/></g>
<g><path style="opacity:0.212" fill="#ecc6b9" d="M 123.5,81.5 C 127.743,82.2692 131.909,83.2692 136,84.5C 136.686,88.2843 135.519,91.2843 132.5,93.5C 133.841,90.9336 134.674,88.2669 135,85.5C 132.222,84.6747 129.389,84.008 126.5,83.5C 126.167,83.5 125.833,83.5 125.5,83.5C 124.833,82.8333 124.167,82.1667 123.5,81.5 Z"/></g>
<g><path style="opacity:0.157" fill="#f9ddd8" d="M 46.5,78.5 C 47.1667,78.5 47.5,78.8333 47.5,79.5C 48.2394,83.7464 46.5727,86.413 42.5,87.5C 43.4577,86.0384 44.6244,84.7051 46,83.5C 46.4935,81.8659 46.6602,80.1992 46.5,78.5 Z"/></g>
<g><path style="opacity:1" fill="#cc3703" d="M 121.5,82.5 C 122.708,83.2341 124.041,83.5674 125.5,83.5C 125.833,83.5 126.167,83.5 126.5,83.5C 127.614,84.8853 128.614,86.3853 129.5,88C 124.348,89.1937 124.348,90.3604 129.5,91.5C 128.632,95.0735 127.132,95.0735 125,91.5C 123.556,93.1554 121.722,93.822 119.5,93.5C 114.857,92.0021 114.191,89.3354 117.5,85.5C 118.283,83.7118 119.616,82.7118 121.5,82.5 Z"/></g>
<g><path style="opacity:1" fill="#ee4302" d="M 82.5,84.5 C 84.0764,85.1429 85.4097,86.1429 86.5,87.5C 84.1806,86.833 81.8473,86.6664 79.5,87C 76.9753,91.5849 74.142,92.0849 71,88.5C 69.5993,90.1922 67.7659,90.8588 65.5,90.5C 63.8333,90.5 62.1667,90.5 60.5,90.5C 60.0033,88.4028 59.67,86.5695 59.5,85C 61.365,82.635 63.0317,82.4683 64.5,84.5C 66.5355,82.9873 68.8688,82.3207 71.5,82.5C 75.2564,82.7543 78.9231,83.421 82.5,84.5 Z"/></g>
<g><path style="opacity:1" fill="#b52505" d="M 90.5,69.5 C 90.8333,69.5 91.1667,69.5 91.5,69.5C 91.1805,74.3633 91.5139,79.03 92.5,83.5C 92.2155,85.4147 92.5489,87.0813 93.5,88.5C 97.5282,92.8593 101.528,97.1927 105.5,101.5C 106.5,102.833 107.5,102.833 108.5,101.5C 113.475,101.847 117.142,99.8465 119.5,95.5C 120.496,95.5858 121.329,95.2524 122,94.5C 122.667,95.1667 122.667,95.8333 122,96.5C 118.088,99.8708 113.922,102.871 109.5,105.5C 109.957,106.298 110.624,106.631 111.5,106.5C 111.179,108.048 110.179,108.715 108.5,108.5C 105.337,109.321 102.67,110.988 100.5,113.5C 99.8933,113.376 99.56,113.043 99.5,112.5C 102.364,110.977 104.031,108.643 104.5,105.5C 101.5,105.5 98.5,105.5 95.5,105.5C 92.1244,103.918 88.4578,103.251 84.5,103.5C 82.0521,102.527 79.3854,102.194 76.5,102.5C 75.2196,101.069 73.5529,100.402 71.5,100.5C 71.5,99.8333 71.8333,99.5 72.5,99.5C 74.451,99.7733 75.951,99.1066 77,97.5C 77.7455,98.9904 78.9121,99.9904 80.5,100.5C 84.8123,101.354 89.1456,102.021 93.5,102.5C 96.8298,103.666 100.163,103.666 103.5,102.5C 100.452,100.118 97.7851,97.4518 95.5,94.5C 93.7267,91.9401 91.7267,89.6068 89.5,87.5C 87.5682,86.0236 87.2348,84.3569 88.5,82.5C 88.7828,83.2891 89.2828,83.9558 90,84.5C 90.4993,79.5111 90.6659,74.5111 90.5,69.5 Z"/></g>
<g><path style="opacity:0.945" fill="#eb8e76" d="M 42.5,87.5 C 42.1667,88.1667 41.8333,88.8333 41.5,89.5C 39.2362,90.2186 36.9029,90.552 34.5,90.5C 36.6845,88.4152 39.3511,87.4152 42.5,87.5 Z"/></g>
<g><path style="opacity:1" fill="#f35805" d="M 105.5,101.5 C 101.528,97.1927 97.5282,92.8593 93.5,88.5C 94.9311,88.1193 95.7645,87.1193 96,85.5C 98.072,88.1537 99.7387,87.8204 101,84.5C 101.667,85.8333 102.333,85.8333 103,84.5C 103.333,85.5 103.667,86.5 104,87.5C 104.36,85.3921 105.027,83.3921 106,81.5C 106.781,85.9689 107.281,90.4689 107.5,95C 107.467,97.6103 106.8,99.777 105.5,101.5 Z"/></g>
<g><path style="opacity:1" fill="#cb3405" d="M 123.5,60.5 C 123.5,62.1667 123.5,63.8333 123.5,65.5C 122.076,67.5145 121.41,69.8478 121.5,72.5C 120.218,75.7307 120.218,79.0641 121.5,82.5C 119.616,82.7118 118.283,83.7118 117.5,85.5C 114.191,89.3354 114.857,92.0021 119.5,93.5C 119.5,94.1667 119.5,94.8333 119.5,95.5C 117.142,99.8465 113.475,101.847 108.5,101.5C 108.666,93.8261 108.5,86.1594 108,78.5C 107.722,77.5842 107.222,76.9175 106.5,76.5C 107.024,74.6943 107.691,73.0276 108.5,71.5C 108.365,73.5542 109.032,75.2209 110.5,76.5C 109.346,82.987 109.179,89.6536 110,96.5C 113.442,91.0104 115.609,85.0104 116.5,78.5C 118.411,73.998 120.078,69.3313 121.5,64.5C 121.989,63.0048 122.655,61.6715 123.5,60.5 Z"/></g>
<g><path style="opacity:1" fill="#ef5207" d="M 116.5,78.5 C 115.609,85.0104 113.442,91.0104 110,96.5C 109.179,89.6536 109.346,82.987 110.5,76.5C 111.156,75.7222 111.989,75.0556 113,74.5C 114.15,75.4239 115.15,75.4239 116,74.5C 116.49,75.7932 116.657,77.1266 116.5,78.5 Z"/></g>
<g><path style="opacity:1" fill="#e94108" d="M 64.5,94.5 C 66.288,94.2148 67.9547,94.5481 69.5,95.5C 68.8333,96.1667 68.1667,96.8333 67.5,97.5C 69.2914,98.1698 70.9581,98.8365 72.5,99.5C 71.8333,99.5 71.5,99.8333 71.5,100.5C 68.779,100.037 66.1123,99.3705 63.5,98.5C 58.9249,97.8982 54.4249,96.8982 50,95.5C 47.4013,97.3446 44.5679,98.6779 41.5,99.5C 40.8333,99.5 40.1667,99.5 39.5,99.5C 38.0697,98.4625 36.403,97.7959 34.5,97.5C 34.0269,96.0937 33.0269,95.427 31.5,95.5C 31.7215,93.3364 32.7215,91.6697 34.5,90.5C 36.9029,90.552 39.2362,90.2186 41.5,89.5C 43.6804,88.1448 45.6804,88.3115 47.5,90C 44.8975,90.7387 43.2309,92.4054 42.5,95C 44.9769,95.2395 47.1435,94.4062 49,92.5C 48.6948,90.5568 48.6948,88.5568 49,86.5C 49.9147,87.3279 50.5814,88.3279 51,89.5C 52.9076,86.6677 53.741,87.001 53.5,90.5C 55.1667,90.5 56.8333,90.5 58.5,90.5C 58.5,91.8333 58.5,93.1667 58.5,94.5C 60.5,94.5 62.5,94.5 64.5,94.5 Z"/></g>
<g><path style="opacity:0.106" fill="#f6d9d2" d="M 34.5,90.5 C 32.7215,91.6697 31.7215,93.3364 31.5,95.5C 30.0937,92.6608 31.0937,90.9941 34.5,90.5 Z"/></g>
<g><path style="opacity:1" fill="#f05105" d="M 86.5,87.5 C 87.5,87.5 88.5,87.5 89.5,87.5C 91.7267,89.6068 93.7267,91.9401 95.5,94.5C 94.2652,94.7214 93.2652,95.3881 92.5,96.5C 91.1667,95.8333 89.8333,95.1667 88.5,94.5C 86.8689,96.2974 84.8689,97.4641 82.5,98C 86.2398,99.6274 89.9065,101.127 93.5,102.5C 89.1456,102.021 84.8123,101.354 80.5,100.5C 78.9121,99.9904 77.7455,98.9904 77,97.5C 75.951,99.1066 74.451,99.7733 72.5,99.5C 70.9581,98.8365 69.2914,98.1698 67.5,97.5C 68.1667,96.8333 68.8333,96.1667 69.5,95.5C 67.9547,94.5481 66.288,94.2148 64.5,94.5C 65.2625,93.7321 66.2625,93.2321 67.5,93C 66.244,92.5831 65.5774,91.7498 65.5,90.5C 67.7659,90.8588 69.5993,90.1922 71,88.5C 74.142,92.0849 76.9753,91.5849 79.5,87C 81.8473,86.6664 84.1806,86.833 86.5,87.5 Z"/></g>
<g><path style="opacity:1" fill="#f45d05" d="M 95.5,94.5 C 97.7851,97.4518 100.452,100.118 103.5,102.5C 100.163,103.666 96.8298,103.666 93.5,102.5C 89.9065,101.127 86.2398,99.6274 82.5,98C 84.8689,97.4641 86.8689,96.2974 88.5,94.5C 89.8333,95.1667 91.1667,95.8333 92.5,96.5C 93.2652,95.3881 94.2652,94.7214 95.5,94.5 Z"/></g>
<g><path style="opacity:0.173" fill="#f0d6cc" d="M 31.5,95.5 C 33.0269,95.427 34.0269,96.0937 34.5,97.5C 32.9731,97.573 31.9731,96.9063 31.5,95.5 Z"/></g>
<g><path style="opacity:0.035" fill="#f6d4bd" d="M 34.5,97.5 C 36.403,97.7959 38.0697,98.4625 39.5,99.5C 37.302,99.8799 35.6354,99.2132 34.5,97.5 Z"/></g>
<g><path style="opacity:1" fill="#cc400f" d="M 126.5,83.5 C 129.389,84.008 132.222,84.6747 135,85.5C 134.674,88.2669 133.841,90.9336 132.5,93.5C 128.817,96.1849 125.817,99.5182 123.5,103.5C 119.936,105.968 115.936,106.968 111.5,106.5C 110.624,106.631 109.957,106.298 109.5,105.5C 113.922,102.871 118.088,99.8708 122,96.5C 122.667,95.8333 122.667,95.1667 122,94.5C 121.329,95.2524 120.496,95.5858 119.5,95.5C 119.5,94.8333 119.5,94.1667 119.5,93.5C 121.722,93.822 123.556,93.1554 125,91.5C 127.132,95.0735 128.632,95.0735 129.5,91.5C 124.348,90.3604 124.348,89.1937 129.5,88C 128.614,86.3853 127.614,84.8853 126.5,83.5 Z"/></g>
<g><path style="opacity:1" fill="#ef4d05" d="M 63.5,98.5 C 60.3245,101.977 56.3245,103.644 51.5,103.5C 51.3059,107.005 50.3059,107.338 48.5,104.5C 48.5,103.833 48.1667,103.5 47.5,103.5C 46.3646,101.787 44.698,101.12 42.5,101.5C 42.1667,100.833 41.8333,100.167 41.5,99.5C 44.5679,98.6779 47.4013,97.3446 50,95.5C 54.4249,96.8982 58.9249,97.8982 63.5,98.5 Z"/></g>
<g><path style="opacity:0.11" fill="#edc6bb" d="M 132.5,93.5 C 130.887,96.2861 129.054,98.9528 127,101.5C 126.184,102.823 125.017,103.489 123.5,103.5C 125.817,99.5182 128.817,96.1849 132.5,93.5 Z"/></g>
<g><path style="opacity:0.176" fill="#f5d4be" d="M 39.5,99.5 C 40.1667,99.5 40.8333,99.5 41.5,99.5C 41.8333,100.167 42.1667,100.833 42.5,101.5C 40.9731,101.573 39.9731,100.906 39.5,99.5 Z"/></g>
<g><path style="opacity:0.827" fill="#f4ac98" d="M 42.5,101.5 C 44.698,101.12 46.3646,101.787 47.5,103.5C 47.5,104.167 47.5,104.833 47.5,105.5C 46.0158,103.926 44.3492,102.593 42.5,101.5 Z"/></g>
<g><path style="opacity:1" fill="#f15305" d="M 63.5,98.5 C 66.1123,99.3705 68.779,100.037 71.5,100.5C 73.5529,100.402 75.2196,101.069 76.5,102.5C 73.7939,105.521 70.4605,107.521 66.5,108.5C 66.5,107.5 66.5,106.5 66.5,105.5C 63.8015,105.466 61.3015,106.133 59,107.5C 58.6667,107.167 58.3333,106.833 58,106.5C 55.5834,109.377 52.4167,111.044 48.5,111.5C 48.5,109.167 48.5,106.833 48.5,104.5C 50.3059,107.338 51.3059,107.005 51.5,103.5C 56.3245,103.644 60.3245,101.977 63.5,98.5 Z"/></g>
<g><path style="opacity:1" fill="#f46107" d="M 84.5,103.5 C 88.4578,103.251 92.1244,103.918 95.5,105.5C 93.3926,106.468 91.0593,106.802 88.5,106.5C 88.6495,107.552 88.4828,108.552 88,109.5C 86.3333,108.833 84.6667,108.167 83,107.5C 81.4157,108.861 79.5824,109.528 77.5,109.5C 77.67,110.822 77.3366,111.989 76.5,113C 73.3054,113.181 70.3054,113.681 67.5,114.5C 66.8333,114.5 66.5,114.833 66.5,115.5C 64.1667,115.5 61.8333,115.5 59.5,115.5C 56.5,115.5 53.5,115.5 50.5,115.5C 60.5605,111.876 70.5605,108.71 80.5,106C 78.6992,105.683 78.3659,105.016 79.5,104C 81.1341,103.506 82.8008,103.34 84.5,103.5 Z"/></g>
<g><path style="opacity:1" fill="#f45b03" d="M 76.5,102.5 C 79.3854,102.194 82.0521,102.527 84.5,103.5C 82.8008,103.34 81.1341,103.506 79.5,104C 78.3659,105.016 78.6992,105.683 80.5,106C 70.5605,108.71 60.5605,111.876 50.5,115.5C 48.8235,114.817 48.1568,113.483 48.5,111.5C 52.4167,111.044 55.5834,109.377 58,106.5C 58.3333,106.833 58.6667,107.167 59,107.5C 61.3015,106.133 63.8015,105.466 66.5,105.5C 66.5,106.5 66.5,107.5 66.5,108.5C 70.4605,107.521 73.7939,105.521 76.5,102.5 Z"/></g>
<g><path style="opacity:1" fill="#f4690c" d="M 95.5,105.5 C 98.5,105.5 101.5,105.5 104.5,105.5C 104.031,108.643 102.364,110.977 99.5,112.5C 98.8333,112.833 98.1667,113.167 97.5,113.5C 96.3163,107.811 93.8163,107.144 90,111.5C 87.4598,110.124 85.4598,110.79 84,113.5C 82.6439,112.62 81.1439,112.286 79.5,112.5C 79.5,113.833 79.5,115.167 79.5,116.5C 75.8274,114.682 71.8274,114.016 67.5,114.5C 70.3054,113.681 73.3054,113.181 76.5,113C 77.3366,111.989 77.67,110.822 77.5,109.5C 79.5824,109.528 81.4157,108.861 83,107.5C 84.6667,108.167 86.3333,108.833 88,109.5C 88.4828,108.552 88.6495,107.552 88.5,106.5C 91.0593,106.802 93.3926,106.468 95.5,105.5 Z"/></g>
<g><path style="opacity:0.953" fill="#cc8877" d="M 123.5,103.5 C 123.586,104.496 123.252,105.329 122.5,106C 119.956,107.092 117.289,107.759 114.5,108C 115.71,109.039 116.71,110.206 117.5,111.5C 116.153,110.972 114.819,110.805 113.5,111C 116.957,113.387 119.957,116.22 122.5,119.5C 118.274,117.121 114.441,114.121 111,110.5C 110.576,113.025 109.41,115.025 107.5,116.5C 107.279,113.721 107.612,111.054 108.5,108.5C 110.179,108.715 111.179,108.048 111.5,106.5C 115.936,106.968 119.936,105.968 123.5,103.5 Z"/></g>
<g><path style="opacity:1" fill="#f96d03" d="M 97.5,113.5 C 96.5637,114.974 95.2303,115.974 93.5,116.5C 90.8067,116.572 88.1401,116.905 85.5,117.5C 84.0055,117.291 82.8388,116.624 82,115.5C 81.2917,116.381 80.4584,117.047 79.5,117.5C 79.5,117.167 79.5,116.833 79.5,116.5C 79.5,115.167 79.5,113.833 79.5,112.5C 81.1439,112.286 82.6439,112.62 84,113.5C 85.4598,110.79 87.4598,110.124 90,111.5C 93.8163,107.144 96.3163,107.811 97.5,113.5 Z"/></g>
<g><path style="opacity:0.98" fill="#e97c43" d="M 47.5,103.5 C 48.1667,103.5 48.5,103.833 48.5,104.5C 48.5,106.833 48.5,109.167 48.5,111.5C 48.1568,113.483 48.8235,114.817 50.5,115.5C 53.5,115.5 56.5,115.5 59.5,115.5C 55.7266,116.958 51.7266,117.458 47.5,117C 46.5939,115.301 46.2606,113.467 46.5,111.5C 46.3253,109.379 46.6586,107.379 47.5,105.5C 47.5,104.833 47.5,104.167 47.5,103.5 Z"/></g>
<g><path style="opacity:1" fill="#d24d15" d="M 108.5,108.5 C 107.612,111.054 107.279,113.721 107.5,116.5C 102.145,118.506 97.4787,121.506 93.5,125.5C 92.4863,126.674 91.153,127.34 89.5,127.5C 87.6203,127.229 86.287,127.896 85.5,129.5C 84.1667,129.5 82.8333,129.5 81.5,129.5C 85.1684,125.799 89.1684,122.299 93.5,119C 92.4019,118.23 92.4019,117.397 93.5,116.5C 95.2303,115.974 96.5637,114.974 97.5,113.5C 98.1667,113.167 98.8333,112.833 99.5,112.5C 99.56,113.043 99.8933,113.376 100.5,113.5C 102.67,110.988 105.337,109.321 108.5,108.5 Z"/></g>
<g><path style="opacity:0.069" fill="#fdefe8" d="M 46.5,111.5 C 46.2606,113.467 46.5939,115.301 47.5,117C 51.7266,117.458 55.7266,116.958 59.5,115.5C 61.8333,115.5 64.1667,115.5 66.5,115.5C 67.1667,115.5 67.8333,115.5 68.5,115.5C 61.4341,117.67 54.1008,118.504 46.5,118C 45.1888,115.726 45.1888,113.56 46.5,111.5 Z"/></g>
<g><path style="opacity:0.271" fill="#f2ceb3" d="M 66.5,115.5 C 66.5,114.833 66.8333,114.5 67.5,114.5C 71.8274,114.016 75.8274,114.682 79.5,116.5C 79.5,116.833 79.5,117.167 79.5,117.5C 78.9106,121.971 79.5772,125.971 81.5,129.5C 82.8333,129.5 84.1667,129.5 85.5,129.5C 83.2259,131.358 80.7259,131.691 78,130.5C 78.0972,125.446 77.9306,120.446 77.5,115.5C 74.5,115.5 71.5,115.5 68.5,115.5C 67.8333,115.5 67.1667,115.5 66.5,115.5 Z"/></g>
<g><path style="opacity:1" fill="#f77308" d="M 93.5,116.5 C 92.4019,117.397 92.4019,118.23 93.5,119C 89.1684,122.299 85.1684,125.799 81.5,129.5C 79.5772,125.971 78.9106,121.971 79.5,117.5C 80.4584,117.047 81.2917,116.381 82,115.5C 82.8388,116.624 84.0055,117.291 85.5,117.5C 88.1401,116.905 90.8067,116.572 93.5,116.5 Z"/></g>
<g><path style="opacity:0.998" fill="#a33221" d="M 117.5,111.5 C 119.404,111.738 120.738,112.738 121.5,114.5C 125.479,118.494 130.145,121.494 135.5,123.5C 136.952,124.302 138.618,124.802 140.5,125C 141.38,126.356 141.714,127.856 141.5,129.5C 138.892,129.6 136.558,128.933 134.5,127.5C 133.486,126.326 132.153,125.66 130.5,125.5C 128.557,122.529 125.891,120.529 122.5,119.5C 119.957,116.22 116.957,113.387 113.5,111C 114.819,110.805 116.153,110.972 117.5,111.5 Z"/></g>
<g><path style="opacity:0.278" fill="#daada7" d="M 121.5,114.5 C 126.515,117.004 131.181,120.004 135.5,123.5C 130.145,121.494 125.479,118.494 121.5,114.5 Z"/></g>
<g><path style="opacity:0.212" fill="#e3baa7" d="M 107.5,116.5 C 103.488,120.507 98.8212,123.507 93.5,125.5C 97.4787,121.506 102.145,118.506 107.5,116.5 Z"/></g>
<g><path style="opacity:0.067" fill="#e6c9c3" d="M 122.5,119.5 C 125.891,120.529 128.557,122.529 130.5,125.5C 127.109,124.471 124.443,122.471 122.5,119.5 Z"/></g>
<g><path style="opacity:0.063" fill="#e3c2bf" d="M 130.5,125.5 C 132.153,125.66 133.486,126.326 134.5,127.5C 132.62,127.771 131.287,127.104 130.5,125.5 Z"/></g>
<g><path style="opacity:0.02" fill="#f8e9e4" d="M 89.5,127.5 C 88.4863,128.674 87.153,129.34 85.5,129.5C 86.287,127.896 87.6203,127.229 89.5,127.5 Z"/></g>
<g><path style="opacity:0.278" fill="#e2c0bc" d="M 135.5,123.5 C 137.527,123.338 139.527,123.505 141.5,124C 143.009,125.674 143.676,127.34 143.5,129C 140.081,132.239 137.081,131.739 134.5,127.5C 136.558,128.933 138.892,129.6 141.5,129.5C 141.714,127.856 141.38,126.356 140.5,125C 138.618,124.802 136.952,124.302 135.5,123.5 Z"/></g>
</svg>
