<?xml version="1.0" encoding="UTF-8"?>
<!DOCTYPE svg PUBLIC "-//W3C//DTD SVG 1.1//EN" "http://www.w3.org/Graphics/SVG/1.1/DTD/svg11.dtd">
<svg xmlns="http://www.w3.org/2000/svg" version="1.1" width="225px" height="225px" style="shape-rendering:geometricPrecision; text-rendering:geometricPrecision; image-rendering:optimizeQuality; fill-rule:evenodd; clip-rule:evenodd" xmlns:xlink="http://www.w3.org/1999/xlink">
<g><path style="opacity:0.882" fill="#e37b66" d="M 75.5,36.5 C 73.3016,35.9856 71.3016,34.9856 69.5,33.5C 68.5108,37.1073 68.1774,40.774 68.5,44.5C 67.0419,40.7266 66.5419,36.7266 67,32.5C 70.7855,31.4724 73.6188,32.8057 75.5,36.5 Z"/></g>
<g><path style="opacity:1" fill="#d3553d" d="M 102.5,48.5 C 100.771,46.2733 98.438,45.2733 95.5,45.5C 96.0476,43.6064 97.0476,41.9397 98.5,40.5C 100.777,42.6433 102.11,45.3099 102.5,48.5 Z"/></g>
<g><path style="opacity:0.839" fill="#e07f68" d="M 135.5,42.5 C 137.472,45.0836 138.472,48.0836 138.5,51.5C 136.69,48.855 135.69,45.855 135.5,42.5 Z"/></g>
<g><path style="opacity:1" fill="#dd4327" d="M 79.5,40.5 C 82.3347,43.1653 85.3347,45.6653 88.5,48C 89.8333,48.6667 91.1667,48.6667 92.5,48C 93.3734,46.955 94.3734,46.1217 95.5,45.5C 95.4431,46.609 95.1098,47.609 94.5,48.5C 93.333,49.8148 91.833,50.4814 90,50.5C 86.1599,48.2348 81.9933,47.0681 77.5,47C 79.0441,46.7104 80.3774,46.0437 81.5,45C 80.4178,43.6703 79.7512,42.1703 79.5,40.5 Z"/></g>
<g><path style="opacity:1" fill="#d74a2b" d="M 135.5,42.5 C 135.69,45.855 136.69,48.855 138.5,51.5C 139.904,56.3638 141.904,61.0305 144.5,65.5C 143.417,65.4606 142.417,65.1272 141.5,64.5C 138.002,57.8331 135.335,50.8331 133.5,43.5C 132.482,44.1925 131.482,44.8592 130.5,45.5C 131.031,43.4559 132.198,41.7893 134,40.5C 134.717,41.0442 135.217,41.7109 135.5,42.5 Z"/></g>
<g><path style="opacity:0.996" fill="#d65b40" d="M 129.5,47.5 C 129.972,50.3579 128.972,52.3579 126.5,53.5C 125.833,53.5 125.167,53.5 124.5,53.5C 126.177,51.4602 127.844,49.4602 129.5,47.5 Z"/></g>
<g><path style="opacity:0.898" fill="#d9624a" d="M 124.5,53.5 C 123.726,54.1471 122.726,54.4805 121.5,54.5C 119.34,54.234 117.674,53.234 116.5,51.5C 115.265,52.3398 114.265,53.3398 113.5,54.5C 113.247,52.1727 113.914,50.1727 115.5,48.5C 117.316,49.8149 118.983,51.3149 120.5,53C 121.793,53.49 123.127,53.6567 124.5,53.5 Z"/></g>
<g><path style="opacity:1" fill="#e72c03" d="M 144.5,65.5 C 144.833,66.1667 145.167,66.8333 145.5,67.5C 146.234,68.7079 146.567,70.0413 146.5,71.5C 142.272,71.2718 137.939,71.2718 133.5,71.5C 131.549,71.7733 130.049,71.1066 129,69.5C 127.56,71.0456 125.727,71.879 123.5,72C 121.994,74.425 120.327,76.7583 118.5,79C 117.207,79.49 115.873,79.6567 114.5,79.5C 116.023,77.6763 117.023,75.5096 117.5,73C 116.147,70.0496 115.481,66.8829 115.5,63.5C 115.92,60.7214 116.587,58.0547 117.5,55.5C 120.482,55.9629 123.482,56.2962 126.5,56.5C 126.5,55.5 126.5,54.5 126.5,53.5C 128.972,52.3579 129.972,50.3579 129.5,47.5C 129.328,46.5084 129.662,45.8417 130.5,45.5C 131.482,44.8592 132.482,44.1925 133.5,43.5C 135.335,50.8331 138.002,57.8331 141.5,64.5C 142.417,65.1272 143.417,65.4606 144.5,65.5 Z"/></g>
<g><path style="opacity:1" fill="#e82b03" d="M 79.5,40.5 C 79.7512,42.1703 80.4178,43.6703 81.5,45C 80.3774,46.0437 79.0441,46.7104 77.5,47C 81.9933,47.0681 86.1599,48.2348 90,50.5C 91.833,50.4814 93.333,49.8148 94.5,48.5C 95.7498,48.4226 96.5831,47.756 97,46.5C 99.5941,55.0718 96.4275,59.0718 87.5,58.5C 88.2421,59.2868 89.0754,59.9535 90,60.5C 90.2511,62.433 90.7511,64.2663 91.5,66C 89.8659,66.4935 88.1992,66.6602 86.5,66.5C 85.5244,65.1851 84.5244,63.8518 83.5,62.5C 84.6085,60.7859 83.9418,60.1192 81.5,60.5C 81.5086,58.6916 81.0086,57.0249 80,55.5C 79.9552,58.2196 80.4552,60.8862 81.5,63.5C 80.1667,63.5 78.8333,63.5 77.5,63.5C 77.665,60.1501 77.4983,56.8168 77,53.5C 76.879,51.2729 76.0456,49.4396 74.5,48C 75.1667,47.6667 75.8333,47.3333 76.5,47C 74.9336,46.3918 73.6002,45.5585 72.5,44.5C 74.1207,44.2131 75.1207,43.2131 75.5,41.5C 76.6888,40.5713 78.0222,40.238 79.5,40.5 Z"/></g>
<g><path style="opacity:1" fill="#e23713" d="M 75.5,36.5 C 77.1667,37.5 78.5,38.8333 79.5,40.5C 78.0222,40.238 76.6888,40.5713 75.5,41.5C 75.1207,43.2131 74.1207,44.2131 72.5,44.5C 72.44,43.9569 72.1067,43.6236 71.5,43.5C 70.3526,45.7649 70.1859,48.0982 71,50.5C 71.5823,47.3323 72.5823,46.999 74,49.5C 74.1629,51.676 74.9963,53.5093 76.5,55C 75.2808,57.2826 75.2808,59.616 76.5,62C 75.5973,65.0709 73.5973,66.9042 70.5,67.5C 71.1009,65.422 71.4343,63.2554 71.5,61C 71.7001,58.1345 71.0334,55.6345 69.5,53.5C 68.8413,50.5448 68.5079,47.5448 68.5,44.5C 68.1774,40.774 68.5108,37.1073 69.5,33.5C 71.3016,34.9856 73.3016,35.9856 75.5,36.5 Z"/></g>
<g><path style="opacity:0.996" fill="#d9583e" d="M 102.5,48.5 C 103.669,51.341 104.669,54.341 105.5,57.5C 104.609,56.8902 103.609,56.5569 102.5,56.5C 102.5,55.5 102.5,54.5 102.5,53.5C 102.5,51.8333 102.5,50.1667 102.5,48.5 Z"/></g>
<g><path style="opacity:1" fill="#ea2b02" d="M 102.5,53.5 C 102.5,54.5 102.5,55.5 102.5,56.5C 102.534,59.2237 103.201,61.2237 104.5,62.5C 104.617,65.8081 103.95,66.1414 102.5,63.5C 102.167,64.5 101.833,65.5 101.5,66.5C 102.182,68.8409 102.849,71.1743 103.5,73.5C 106.5,73.1667 107.833,74.5 107.5,77.5C 109.989,77.2407 111.656,78.2407 112.5,80.5C 110.743,81.5177 109.077,81.1844 107.5,79.5C 105.431,79.7853 104.098,80.952 103.5,83C 102.551,83.6172 101.718,83.4506 101,82.5C 100.722,83.4158 100.222,84.0825 99.5,84.5C 99.5861,82.323 100.253,80.323 101.5,78.5C 99.5726,70.3682 98.906,62.0349 99.5,53.5C 100.5,53.5 101.5,53.5 102.5,53.5 Z"/></g>
<g><path style="opacity:1" fill="#e42d05" d="M 95.5,45.5 C 98.438,45.2733 100.771,46.2733 102.5,48.5C 102.5,50.1667 102.5,51.8333 102.5,53.5C 101.5,53.5 100.5,53.5 99.5,53.5C 98.906,62.0349 99.5726,70.3682 101.5,78.5C 100.253,80.323 99.5861,82.323 99.5,84.5C 101.766,88.0337 103.766,91.7004 105.5,95.5C 103.5,93.8333 101.5,92.1667 99.5,90.5C 98.7835,81.5253 98.2835,72.5253 98,63.5C 97.1533,69.8141 96.4866,76.1475 96,82.5C 92.0349,77.5585 88.8682,72.2252 86.5,66.5C 88.1992,66.6602 89.8659,66.4935 91.5,66C 90.7511,64.2663 90.2511,62.433 90,60.5C 89.0754,59.9535 88.2421,59.2868 87.5,58.5C 96.4275,59.0718 99.5941,55.0718 97,46.5C 96.5831,47.756 95.7498,48.4226 94.5,48.5C 95.1098,47.609 95.4431,46.609 95.5,45.5 Z"/></g>
<g><path style="opacity:1" fill="#e92b02" d="M 72.5,44.5 C 73.6002,45.5585 74.9336,46.3918 76.5,47C 75.8333,47.3333 75.1667,47.6667 74.5,48C 76.0456,49.4396 76.879,51.2729 77,53.5C 77.4983,56.8168 77.665,60.1501 77.5,63.5C 78.8333,63.5 80.1667,63.5 81.5,63.5C 82.2832,65.0758 83.4499,66.4092 85,67.5C 85.5791,68.9285 85.4124,70.2618 84.5,71.5C 84.627,74.245 83.4603,76.245 81,77.5C 80.6667,74.8333 80.3333,72.1667 80,69.5C 78.9887,70.3366 77.8221,70.67 76.5,70.5C 76.728,72.3547 76.0613,73.1881 74.5,73C 75.3366,71.9887 75.67,70.8221 75.5,69.5C 73.5853,69.7845 71.9187,69.4511 70.5,68.5C 70.5,68.1667 70.5,67.8333 70.5,67.5C 73.5973,66.9042 75.5973,65.0709 76.5,62C 75.2808,59.616 75.2808,57.2826 76.5,55C 74.9963,53.5093 74.1629,51.676 74,49.5C 72.5823,46.999 71.5823,47.3323 71,50.5C 70.1859,48.0982 70.3526,45.7649 71.5,43.5C 72.1067,43.6236 72.44,43.9569 72.5,44.5 Z"/></g>
<g><path style="opacity:0.776" fill="#df6b55" d="M 144.5,65.5 C 148.116,65.8993 151.45,66.8993 154.5,68.5C 151.455,68.4921 148.455,68.1587 145.5,67.5C 145.167,66.8333 144.833,66.1667 144.5,65.5 Z"/></g>
<g><path style="opacity:0.973" fill="#e1735d" d="M 69.5,53.5 C 71.0334,55.6345 71.7001,58.1345 71.5,61C 71.4343,63.2554 71.1009,65.422 70.5,67.5C 70.5,67.8333 70.5,68.1667 70.5,68.5C 69.5,68.5 68.5,68.5 67.5,68.5C 69.1598,66.678 70.1598,64.5113 70.5,62C 69.7844,59.2077 69.4511,56.3743 69.5,53.5 Z"/></g>
<g><path style="opacity:0.961" fill="#cd614c" d="M 67.5,68.5 C 66.4261,70.2155 64.7594,71.2155 62.5,71.5C 61.5713,72.6888 61.238,74.0222 61.5,75.5C 59.7868,74.3646 59.1201,72.698 59.5,70.5C 62.221,70.0372 64.8877,69.3705 67.5,68.5 Z"/></g>
<g><path style="opacity:1" fill="#ea3502" d="M 133.5,71.5 C 133.5,75.5 133.5,79.5 133.5,83.5C 132.819,81.8415 131.985,80.1749 131,78.5C 129.547,81.2976 128.547,84.2976 128,87.5C 124.039,80.2679 120.039,79.9346 116,86.5C 115.768,85.2625 115.268,84.2625 114.5,83.5C 114.5,82.1667 114.5,80.8333 114.5,79.5C 115.873,79.6567 117.207,79.49 118.5,79C 120.327,76.7583 121.994,74.425 123.5,72C 125.727,71.879 127.56,71.0456 129,69.5C 130.049,71.1066 131.549,71.7733 133.5,71.5 Z"/></g>
<g><path style="opacity:1" fill="#e2320e" d="M 124.5,53.5 C 125.167,53.5 125.833,53.5 126.5,53.5C 126.5,54.5 126.5,55.5 126.5,56.5C 123.482,56.2962 120.482,55.9629 117.5,55.5C 116.587,58.0547 115.92,60.7214 115.5,63.5C 115.481,66.8829 116.147,70.0496 117.5,73C 117.023,75.5096 116.023,77.6763 114.5,79.5C 114.5,80.8333 114.5,82.1667 114.5,83.5C 114.5,84.8333 114.5,86.1667 114.5,87.5C 114.167,87.5 113.833,87.5 113.5,87.5C 113.552,85.0971 113.219,82.7638 112.5,80.5C 111.656,78.2407 109.989,77.2407 107.5,77.5C 107.833,74.5 106.5,73.1667 103.5,73.5C 102.849,71.1743 102.182,68.8409 101.5,66.5C 101.833,65.5 102.167,64.5 102.5,63.5C 103.95,66.1414 104.617,65.8081 104.5,62.5C 103.201,61.2237 102.534,59.2237 102.5,56.5C 103.609,56.5569 104.609,56.8902 105.5,57.5C 105.5,57.8333 105.5,58.1667 105.5,58.5C 105.164,62.1669 105.997,65.5002 108,68.5C 109.292,69.7911 110.458,69.7911 111.5,68.5C 111.911,63.6616 112.578,58.9949 113.5,54.5C 114.265,53.3398 115.265,52.3398 116.5,51.5C 117.674,53.234 119.34,54.234 121.5,54.5C 122.726,54.4805 123.726,54.1471 124.5,53.5 Z"/></g>
<g><path style="opacity:0.855" fill="#df7157" d="M 105.5,58.5 C 106.933,61.2823 108.1,64.2823 109,67.5C 109.671,68.2524 110.504,68.5858 111.5,68.5C 110.458,69.7911 109.292,69.7911 108,68.5C 105.997,65.5002 105.164,62.1669 105.5,58.5 Z"/></g>
<g><path style="opacity:0.961" fill="#d26b54" d="M 154.5,68.5 C 156.026,69.4919 156.693,70.9919 156.5,73C 155.591,79.3901 154.257,85.5568 152.5,91.5C 152.5,90.1667 152.5,88.8333 152.5,87.5C 152.5,84.8333 152.5,82.1667 152.5,79.5C 154.414,76.3157 155.08,72.649 154.5,68.5 Z"/></g>
<g><path style="opacity:1" fill="#de3708" d="M 145.5,67.5 C 148.455,68.1587 151.455,68.4921 154.5,68.5C 155.08,72.649 154.414,76.3157 152.5,79.5C 151.705,75.54 149.371,73.2066 145.5,72.5C 145.808,74.924 145.474,77.2573 144.5,79.5C 143.402,78.3845 142.235,78.3845 141,79.5C 139.324,76.84 137.657,76.84 136,79.5C 135.112,84.6178 135.445,89.6178 137,94.5C 138.422,92.3619 140.255,91.1953 142.5,91C 141.619,91.7083 140.953,92.5416 140.5,93.5C 139.542,93.9528 138.708,94.6195 138,95.5C 137.5,101.825 137.334,108.158 137.5,114.5C 136.674,110.018 136.174,105.351 136,100.5C 135.5,108.827 135.334,117.16 135.5,125.5C 135.5,126.5 135.5,127.5 135.5,128.5C 134.209,128.737 133.209,128.404 132.5,127.5C 134.474,117.889 135.141,107.889 134.5,97.5C 133.215,95.5484 131.549,93.8818 129.5,92.5C 128.436,87.6178 129.436,87.6178 132.5,92.5C 133.484,89.5719 133.817,86.5719 133.5,83.5C 133.5,79.5 133.5,75.5 133.5,71.5C 137.939,71.2718 142.272,71.2718 146.5,71.5C 146.567,70.0413 146.234,68.7079 145.5,67.5 Z"/></g>
<g><path style="opacity:1" fill="#d42505" d="M 86.5,66.5 C 88.8682,72.2252 92.0349,77.5585 96,82.5C 96.4866,76.1475 97.1533,69.8141 98,63.5C 98.2835,72.5253 98.7835,81.5253 99.5,90.5C 97.6366,88.2947 95.3033,86.9613 92.5,86.5C 88.7111,83.4981 84.3777,81.3314 79.5,80C 89.4713,82.3359 91.138,79.5026 84.5,71.5C 85.4124,70.2618 85.5791,68.9285 85,67.5C 83.4499,66.4092 82.2832,65.0758 81.5,63.5C 80.4552,60.8862 79.9552,58.2196 80,55.5C 81.0086,57.0249 81.5086,58.6916 81.5,60.5C 83.9418,60.1192 84.6085,60.7859 83.5,62.5C 84.5244,63.8518 85.5244,65.1851 86.5,66.5 Z"/></g>
<g><path style="opacity:1" fill="#ea3904" d="M 112.5,80.5 C 113.219,82.7638 113.552,85.0971 113.5,87.5C 113.829,93.5368 113.496,99.5368 112.5,105.5C 109.655,102.458 107.321,99.1248 105.5,95.5C 103.766,91.7004 101.766,88.0337 99.5,84.5C 100.222,84.0825 100.722,83.4158 101,82.5C 101.718,83.4506 102.551,83.6172 103.5,83C 104.098,80.952 105.431,79.7853 107.5,79.5C 109.077,81.1844 110.743,81.5177 112.5,80.5 Z"/></g>
<g><path style="opacity:1" fill="#ec4005" d="M 152.5,79.5 C 152.5,82.1667 152.5,84.8333 152.5,87.5C 150.896,90.4032 149.896,93.7366 149.5,97.5C 148.14,98.1799 146.807,98.8466 145.5,99.5C 145.5,97.5 145.5,95.5 145.5,93.5C 143.64,94.0715 141.973,94.0715 140.5,93.5C 140.953,92.5416 141.619,91.7083 142.5,91C 140.255,91.1953 138.422,92.3619 137,94.5C 135.445,89.6178 135.112,84.6178 136,79.5C 137.657,76.84 139.324,76.84 141,79.5C 142.235,78.3845 143.402,78.3845 144.5,79.5C 145.474,77.2573 145.808,74.924 145.5,72.5C 149.371,73.2066 151.705,75.54 152.5,79.5 Z"/></g>
<g><path style="opacity:0.533" fill="#e48b7b" d="M 67.5,81.5 C 69.0269,81.427 70.0269,82.0937 70.5,83.5C 68.9731,83.573 67.9731,82.9063 67.5,81.5 Z"/></g>
<g><path style="opacity:1" fill="#e52a05" d="M 67.5,68.5 C 68.5,68.5 69.5,68.5 70.5,68.5C 71.9187,69.4511 73.5853,69.7845 75.5,69.5C 75.67,70.8221 75.3366,71.9887 74.5,73C 76.0613,73.1881 76.728,72.3547 76.5,70.5C 77.8221,70.67 78.9887,70.3366 80,69.5C 80.3333,72.1667 80.6667,74.8333 81,77.5C 83.4603,76.245 84.627,74.245 84.5,71.5C 91.138,79.5026 89.4713,82.3359 79.5,80C 84.3777,81.3314 88.7111,83.4981 92.5,86.5C 92.5,86.8333 92.5,87.1667 92.5,87.5C 88.5215,86.1814 84.5215,84.8481 80.5,83.5C 79.7124,84.7701 78.7124,85.7701 77.5,86.5C 76.2264,85.8106 76.2264,84.9772 77.5,84C 75.7749,84.4087 74.1082,84.2421 72.5,83.5C 71.8333,82.1667 71.1667,80.8333 70.5,79.5C 71.1667,79.1667 71.8333,78.8333 72.5,78.5C 71.4783,77.646 70.6449,76.646 70,75.5C 69.3005,77.032 68.1338,78.032 66.5,78.5C 65.2742,76.7221 63.6075,75.7221 61.5,75.5C 61.238,74.0222 61.5713,72.6888 62.5,71.5C 64.7594,71.2155 66.4261,70.2155 67.5,68.5 Z"/></g>
<g><path style="opacity:1" fill="#e93d04" d="M 133.5,83.5 C 133.817,86.5719 133.484,89.5719 132.5,92.5C 129.436,87.6178 128.436,87.6178 129.5,92.5C 125.57,91.3965 122.07,91.7299 119,93.5C 118.667,91.5 118.333,89.5 118,87.5C 117.503,90.146 117.336,92.8127 117.5,95.5C 116.5,95.5 115.5,95.5 114.5,95.5C 114.5,92.8333 114.5,90.1667 114.5,87.5C 114.5,86.1667 114.5,84.8333 114.5,83.5C 115.268,84.2625 115.768,85.2625 116,86.5C 120.039,79.9346 124.039,80.2679 128,87.5C 128.547,84.2976 129.547,81.2976 131,78.5C 131.985,80.1749 132.819,81.8415 133.5,83.5 Z"/></g>
<g><path style="opacity:0.533" fill="#ec8b7a" d="M 75.5,88.5 C 77.8333,88.8333 79.1667,90.1667 79.5,92.5C 77.8333,91.5 76.5,90.1667 75.5,88.5 Z"/></g>
<g><path style="opacity:1" fill="#dd3a15" d="M 61.5,75.5 C 63.6075,75.7221 65.2742,76.7221 66.5,78.5C 68.1338,78.032 69.3005,77.032 70,75.5C 70.6449,76.646 71.4783,77.646 72.5,78.5C 71.8333,78.8333 71.1667,79.1667 70.5,79.5C 71.1667,80.8333 71.8333,82.1667 72.5,83.5C 74.1082,84.2421 75.7749,84.4087 77.5,84C 76.2264,84.9772 76.2264,85.8106 77.5,86.5C 79.7535,86.1539 82.0868,86.6539 84.5,88C 83.8333,89 83.1667,90 82.5,91C 83.4061,92.6995 83.7394,94.5328 83.5,96.5C 75.4754,96.6097 67.4754,96.2763 59.5,95.5C 59.5,96.5 59.5,97.5 59.5,98.5C 59.1667,98.5 58.8333,98.5 58.5,98.5C 58.5,97.1667 58.5,95.8333 58.5,94.5C 62.1667,94.5 65.8333,94.5 69.5,94.5C 73.3293,95.069 76.6627,94.4023 79.5,92.5C 79.1667,90.1667 77.8333,88.8333 75.5,88.5C 73.5,87.1667 71.8333,85.5 70.5,83.5C 70.0269,82.0937 69.0269,81.427 67.5,81.5C 65.1667,79.8333 63.1667,77.8333 61.5,75.5 Z"/></g>
<g><path style="opacity:0.424" fill="#ec8775" d="M 69.5,94.5 C 65.8333,94.5 62.1667,94.5 58.5,94.5C 58.5,95.8333 58.5,97.1667 58.5,98.5C 57.5489,97.0813 57.2155,95.4147 57.5,93.5C 61.7016,93.1832 65.7016,93.5166 69.5,94.5 Z"/></g>
<g><path style="opacity:1" fill="#ea3302" d="M 92.5,87.5 C 95.639,89.085 97.3056,91.7517 97.5,95.5C 94.1667,95.5 90.8333,95.5 87.5,95.5C 87.5,96.5 87.5,97.5 87.5,98.5C 83.8084,97.9712 80.6417,98.9712 78,101.5C 77.3333,100.167 76.6667,100.167 76,101.5C 75.6667,100.833 75.3333,100.167 75,99.5C 73.6667,100.833 72.3333,100.833 71,99.5C 69.8118,100.563 69.3118,101.897 69.5,103.5C 66.2613,103.587 63.2613,102.92 60.5,101.5C 60.7373,100.209 60.404,99.209 59.5,98.5C 59.5,97.5 59.5,96.5 59.5,95.5C 67.4754,96.2763 75.4754,96.6097 83.5,96.5C 83.7394,94.5328 83.4061,92.6995 82.5,91C 83.1667,90 83.8333,89 84.5,88C 82.0868,86.6539 79.7535,86.1539 77.5,86.5C 78.7124,85.7701 79.7124,84.7701 80.5,83.5C 84.5215,84.8481 88.5215,86.1814 92.5,87.5 Z"/></g>
<g><path style="opacity:1" fill="#ee4803" d="M 129.5,92.5 C 131.549,93.8818 133.215,95.5484 134.5,97.5C 133.504,97.5858 132.671,97.2524 132,96.5C 131.579,100.872 130.912,105.205 130,109.5C 129.503,102.497 128.837,102.163 128,108.5C 127.751,107.376 127.251,106.376 126.5,105.5C 125.5,107.167 124.167,108.5 122.5,109.5C 121.468,107.96 120.135,107.46 118.5,108C 119.684,109.145 119.684,110.312 118.5,111.5C 116.983,111.489 115.816,110.823 115,109.5C 114.501,104.845 114.334,100.179 114.5,95.5C 115.5,95.5 116.5,95.5 117.5,95.5C 117.336,92.8127 117.503,90.146 118,87.5C 118.333,89.5 118.667,91.5 119,93.5C 122.07,91.7299 125.57,91.3965 129.5,92.5 Z"/></g>
<g><path style="opacity:1" fill="#e83c06" d="M 92.5,87.5 C 92.5,87.1667 92.5,86.8333 92.5,86.5C 95.3033,86.9613 97.6366,88.2947 99.5,90.5C 101.682,95.1971 104.516,99.5305 108,103.5C 108.484,105.193 107.984,106.527 106.5,107.5C 102.685,105.703 98.6852,104.37 94.5,103.5C 92.2083,102.66 89.875,101.66 87.5,100.5C 88.989,100.467 90.3224,99.9669 91.5,99C 90.2068,98.51 88.8734,98.3433 87.5,98.5C 87.5,97.5 87.5,96.5 87.5,95.5C 90.8333,95.5 94.1667,95.5 97.5,95.5C 97.3056,91.7517 95.639,89.085 92.5,87.5 Z"/></g>
<g><path style="opacity:1" fill="#ed3d01" d="M 87.5,98.5 C 88.8734,98.3433 90.2068,98.51 91.5,99C 90.3224,99.9669 88.989,100.467 87.5,100.5C 89.875,101.66 92.2083,102.66 94.5,103.5C 93.1266,103.343 91.7932,103.51 90.5,104C 87.8033,106.04 85.1367,108.04 82.5,110C 84.0589,110.98 85.7256,111.813 87.5,112.5C 85.604,113.466 83.604,113.799 81.5,113.5C 79.396,113.799 77.396,113.466 75.5,112.5C 77.2471,108.57 75.9138,106.903 71.5,107.5C 67.0752,107.709 65.7419,109.709 67.5,113.5C 67.9175,114.222 68.5842,114.722 69.5,115C 67.7505,116.319 65.7505,116.819 63.5,116.5C 63.5,117.5 63.5,118.5 63.5,119.5C 61.7839,119.629 60.1172,119.962 58.5,120.5C 58.3893,119.883 58.056,119.383 57.5,119C 59.3513,117.316 61.018,115.483 62.5,113.5C 62.6965,111.52 62.0299,109.52 60.5,107.5C 60.9377,106.494 61.6043,106.494 62.5,107.5C 63.8333,106.167 63.8333,104.833 62.5,103.5C 60.7859,104.609 60.1192,103.942 60.5,101.5C 63.2613,102.92 66.2613,103.587 69.5,103.5C 69.3118,101.897 69.8118,100.563 71,99.5C 72.3333,100.833 73.6667,100.833 75,99.5C 75.3333,100.167 75.6667,100.833 76,101.5C 76.6667,100.167 77.3333,100.167 78,101.5C 80.6417,98.9712 83.8084,97.9712 87.5,98.5 Z"/></g>
<g><path style="opacity:1" fill="#db7f66" d="M 152.5,100.5 C 157.337,102.795 162.337,104.462 167.5,105.5C 164.763,105.599 162.096,105.265 159.5,104.5C 157.396,104.799 155.396,104.466 153.5,103.5C 152.873,102.583 152.539,101.583 152.5,100.5 Z"/></g>
<g><path style="opacity:1" fill="#f05507" d="M 140.5,93.5 C 141.973,94.0715 143.64,94.0715 145.5,93.5C 145.5,95.5 145.5,97.5 145.5,99.5C 143.893,106.822 141.393,113.822 138,120.5C 137.505,118.527 137.338,116.527 137.5,114.5C 137.334,108.158 137.5,101.825 138,95.5C 138.708,94.6195 139.542,93.9528 140.5,93.5 Z"/></g>
<g><path style="opacity:0.502" fill="#f6a690" d="M 58.5,98.5 C 58.8333,98.5 59.1667,98.5 59.5,98.5C 59.6641,101.187 59.4974,103.854 59,106.5C 58.1841,107.823 57.0174,108.489 55.5,108.5C 58.1426,105.766 59.1426,102.433 58.5,98.5 Z"/></g>
<g><path style="opacity:1" fill="#ec4604" d="M 94.5,103.5 C 98.6852,104.37 102.685,105.703 106.5,107.5C 110.783,107.794 113.783,109.794 115.5,113.5C 110.889,110.225 105.722,108.225 100,107.5C 98.9914,109.025 98.4914,110.692 98.5,112.5C 96.549,112.227 95.049,112.893 94,114.5C 93,113.5 92,112.5 91,111.5C 90.5357,112.094 90.369,112.761 90.5,113.5C 89.1213,114.609 87.4547,115.276 85.5,115.5C 83.6672,115.415 82.3339,114.748 81.5,113.5C 83.604,113.799 85.604,113.466 87.5,112.5C 85.7256,111.813 84.0589,110.98 82.5,110C 85.1367,108.04 87.8033,106.04 90.5,104C 91.7932,103.51 93.1266,103.343 94.5,103.5 Z"/></g>
<g><path style="opacity:1" fill="#e13e0b" d="M 81.5,113.5 C 82.3339,114.748 83.6672,115.415 85.5,115.5C 87.4547,115.276 89.1213,114.609 90.5,113.5C 92.5224,115.531 94.1891,117.865 95.5,120.5C 94.8333,120.5 94.5,120.833 94.5,121.5C 93.244,119.656 91.5773,118.323 89.5,117.5C 84.3052,117.584 78.9718,117.75 73.5,118C 72.6198,116.644 72.2865,115.144 72.5,113.5C 70.8333,113.5 69.1667,113.5 67.5,113.5C 65.7419,109.709 67.0752,107.709 71.5,107.5C 75.9138,106.903 77.2471,108.57 75.5,112.5C 77.396,113.466 79.396,113.799 81.5,113.5 Z"/></g>
<g><path style="opacity:1" fill="#cb5734" d="M 159.5,104.5 C 162.096,105.265 164.763,105.599 167.5,105.5C 168.496,105.414 169.329,105.748 170,106.5C 170.765,108.066 170.598,109.399 169.5,110.5C 168.094,110.973 167.427,111.973 167.5,113.5C 166.214,116.117 164.547,118.45 162.5,120.5C 164.41,116.009 165.744,111.342 166.5,106.5C 163.612,107.01 161.279,106.344 159.5,104.5 Z"/></g>
<g><path style="opacity:1" fill="#b52002" d="M 113.5,87.5 C 113.833,87.5 114.167,87.5 114.5,87.5C 114.5,90.1667 114.5,92.8333 114.5,95.5C 114.334,100.179 114.501,104.845 115,109.5C 115.816,110.823 116.983,111.489 118.5,111.5C 122.801,117.135 127.467,122.468 132.5,127.5C 133.209,128.404 134.209,128.737 135.5,128.5C 133.583,130.646 133.25,132.979 134.5,135.5C 132.167,136.833 129.833,138.167 127.5,139.5C 128.389,137.264 129.722,135.264 131.5,133.5C 123.926,131.627 116.26,130.293 108.5,129.5C 107.081,128.549 105.415,128.216 103.5,128.5C 98.3377,127.269 93.0043,126.269 87.5,125.5C 85.0392,124.469 82.3725,123.802 79.5,123.5C 78.3915,122.71 77.0581,122.21 75.5,122C 81.4108,121.962 87.2442,122.795 93,124.5C 95.5781,124.318 96.0781,123.318 94.5,121.5C 94.5,120.833 94.8333,120.5 95.5,120.5C 96.8157,122.317 98.3157,123.983 100,125.5C 105.113,126.823 110.28,127.823 115.5,128.5C 119.879,128.922 124.212,129.589 128.5,130.5C 128.833,130 129.167,129.5 129.5,129C 126.315,124.985 122.982,121.152 119.5,117.5C 118.5,115.833 117.167,114.5 115.5,113.5C 113.783,109.794 110.783,107.794 106.5,107.5C 107.984,106.527 108.484,105.193 108,103.5C 104.516,99.5305 101.682,95.1971 99.5,90.5C 101.5,92.1667 103.5,93.8333 105.5,95.5C 107.321,99.1248 109.655,102.458 112.5,105.5C 113.496,99.5368 113.829,93.5368 113.5,87.5 Z"/></g>
<g><path style="opacity:1" fill="#cc3b0a" d="M 152.5,87.5 C 152.5,88.8333 152.5,90.1667 152.5,91.5C 152.5,94.5 152.5,97.5 152.5,100.5C 152.539,101.583 152.873,102.583 153.5,103.5C 155.396,104.466 157.396,104.799 159.5,104.5C 161.279,106.344 163.612,107.01 166.5,106.5C 165.744,111.342 164.41,116.009 162.5,120.5C 162.167,121.5 161.5,122.167 160.5,122.5C 156.624,122.749 154.624,124.749 154.5,128.5C 150.509,127.872 149.176,129.205 150.5,132.5C 146.486,132.666 142.486,132.499 138.5,132C 142.817,129.014 146.817,125.68 150.5,122C 150.167,121.833 149.833,121.667 149.5,121.5C 145.805,124.362 141.971,127.028 138,129.5C 137.392,127.934 136.558,126.6 135.5,125.5C 135.334,117.16 135.5,108.827 136,100.5C 136.174,105.351 136.674,110.018 137.5,114.5C 137.338,116.527 137.505,118.527 138,120.5C 141.393,113.822 143.893,106.822 145.5,99.5C 146.807,98.8466 148.14,98.1799 149.5,97.5C 149.896,93.7366 150.896,90.4032 152.5,87.5 Z"/></g>
<g><path style="opacity:1" fill="#f35906" d="M 134.5,97.5 C 135.141,107.889 134.474,117.889 132.5,127.5C 127.467,122.468 122.801,117.135 118.5,111.5C 119.684,110.312 119.684,109.145 118.5,108C 120.135,107.46 121.468,107.96 122.5,109.5C 124.167,108.5 125.5,107.167 126.5,105.5C 127.251,106.376 127.751,107.376 128,108.5C 128.837,102.163 129.503,102.497 130,109.5C 130.912,105.205 131.579,100.872 132,96.5C 132.671,97.2524 133.504,97.5858 134.5,97.5 Z"/></g>
<g><path style="opacity:0.024" fill="#f2b591" d="M 169.5,110.5 C 169.573,112.027 168.906,113.027 167.5,113.5C 167.427,111.973 168.094,110.973 169.5,110.5 Z"/></g>
<g><path style="opacity:1" fill="#dd5835" d="M 55.5,108.5 C 55.4894,110.017 54.8228,111.184 53.5,112C 49.3716,114.063 45.0383,115.563 40.5,116.5C 40.5,117.5 40.5,118.5 40.5,119.5C 38.2901,118.545 37.9568,117.045 39.5,115C 44.6568,112.338 49.9901,110.171 55.5,108.5 Z"/></g>
<g><path style="opacity:1" fill="#f25305" d="M 115.5,113.5 C 117.167,114.5 118.5,115.833 119.5,117.5C 116.552,119.786 113.718,120.119 111,118.5C 110.383,119.449 110.549,120.282 111.5,121C 108.289,122.153 104.956,122.82 101.5,123C 105.707,124.736 110.041,126.069 114.5,127C 115.056,127.383 115.389,127.883 115.5,128.5C 110.28,127.823 105.113,126.823 100,125.5C 98.3157,123.983 96.8157,122.317 95.5,120.5C 94.1891,117.865 92.5224,115.531 90.5,113.5C 90.369,112.761 90.5357,112.094 91,111.5C 92,112.5 93,113.5 94,114.5C 95.049,112.893 96.549,112.227 98.5,112.5C 98.4914,110.692 98.9914,109.025 100,107.5C 105.722,108.225 110.889,110.225 115.5,113.5 Z"/></g>
<g><path style="opacity:1" fill="#e94008" d="M 59.5,98.5 C 60.404,99.209 60.7373,100.209 60.5,101.5C 60.1192,103.942 60.7859,104.609 62.5,103.5C 63.8333,104.833 63.8333,106.167 62.5,107.5C 61.6043,106.494 60.9377,106.494 60.5,107.5C 62.0299,109.52 62.6965,111.52 62.5,113.5C 61.018,115.483 59.3513,117.316 57.5,119C 58.056,119.383 58.3893,119.883 58.5,120.5C 56.4247,120.302 54.4247,120.135 52.5,120C 53.3802,121.356 53.7135,122.856 53.5,124.5C 50.8333,123.5 48.1667,122.5 45.5,121.5C 44.8333,121.5 44.1667,121.5 43.5,121.5C 41.9731,121.573 40.9731,120.906 40.5,119.5C 40.5,118.5 40.5,117.5 40.5,116.5C 45.0383,115.563 49.3716,114.063 53.5,112C 54.8228,111.184 55.4894,110.017 55.5,108.5C 57.0174,108.489 58.1841,107.823 59,106.5C 59.4974,103.854 59.6641,101.187 59.5,98.5 Z"/></g>
<g><path style="opacity:1" fill="#e94805" d="M 67.5,113.5 C 69.1667,113.5 70.8333,113.5 72.5,113.5C 72.2865,115.144 72.6198,116.644 73.5,118C 78.9718,117.75 84.3052,117.584 89.5,117.5C 91.5773,118.323 93.244,119.656 94.5,121.5C 96.0781,123.318 95.5781,124.318 93,124.5C 87.2442,122.795 81.4108,121.962 75.5,122C 77.0581,122.21 78.3915,122.71 79.5,123.5C 73.4981,123.899 67.4981,123.899 61.5,123.5C 59.484,123.484 58.484,122.484 58.5,120.5C 60.1172,119.962 61.7839,119.629 63.5,119.5C 63.5,118.5 63.5,117.5 63.5,116.5C 65.7505,116.819 67.7505,116.319 69.5,115C 68.5842,114.722 67.9175,114.222 67.5,113.5 Z"/></g>
<g><path style="opacity:0.176" fill="#f9c2b0" d="M 43.5,121.5 C 44.1667,121.5 44.8333,121.5 45.5,121.5C 45.8333,122.167 46.1667,122.833 46.5,123.5C 44.9731,123.573 43.9731,122.906 43.5,121.5 Z"/></g>
<g><path style="opacity:1" fill="#f45e06" d="M 119.5,117.5 C 122.982,121.152 126.315,124.985 129.5,129C 129.167,129.5 128.833,130 128.5,130.5C 124.212,129.589 119.879,128.922 115.5,128.5C 115.389,127.883 115.056,127.383 114.5,127C 110.041,126.069 105.707,124.736 101.5,123C 104.956,122.82 108.289,122.153 111.5,121C 110.549,120.282 110.383,119.449 111,118.5C 113.718,120.119 116.552,119.786 119.5,117.5 Z"/></g>
<g><path style="opacity:1" fill="#f04d04" d="M 58.5,120.5 C 58.484,122.484 59.484,123.484 61.5,123.5C 67.4981,123.899 73.4981,123.899 79.5,123.5C 82.3725,123.802 85.0392,124.469 87.5,125.5C 78.8645,125.831 71.1979,127.164 64.5,129.5C 65.1378,132.856 63.8044,134.856 60.5,135.5C 61.3147,129.676 58.9813,126.009 53.5,124.5C 53.7135,122.856 53.3802,121.356 52.5,120C 54.4247,120.135 56.4247,120.302 58.5,120.5 Z"/></g>
<g><path style="opacity:1" fill="#f25406" d="M 87.5,125.5 C 93.0043,126.269 98.3377,127.269 103.5,128.5C 96.7051,128.556 90.7051,130.889 85.5,135.5C 83.7923,135.297 82.459,134.464 81.5,133C 82.6537,132.086 82.487,131.253 81,130.5C 78.4944,133.056 75.6611,134.056 72.5,133.5C 71.8333,134.5 71.1667,135.5 70.5,136.5C 67.2855,136.95 64.6189,138.283 62.5,140.5C 61.1667,141.833 61.1667,143.167 62.5,144.5C 60.6122,142.012 59.9455,139.012 60.5,135.5C 63.8044,134.856 65.1378,132.856 64.5,129.5C 71.1979,127.164 78.8645,125.831 87.5,125.5 Z"/></g>
<g><path style="opacity:1" fill="#d36a45" d="M 160.5,122.5 C 158.167,126.833 154.833,130.167 150.5,132.5C 149.176,129.205 150.509,127.872 154.5,128.5C 154.624,124.749 156.624,122.749 160.5,122.5 Z"/></g>
<g><path style="opacity:1" fill="#f56103" d="M 108.5,129.5 C 107.77,131.045 106.437,131.878 104.5,132C 105.949,133.117 107.616,133.784 109.5,134C 110.711,134.893 110.711,135.726 109.5,136.5C 106.258,136.167 103.425,135.834 101,135.5C 99.414,136.376 97.914,137.376 96.5,138.5C 97.7178,139.803 97.3845,140.803 95.5,141.5C 91.6875,142.167 88.0208,142.834 84.5,143.5C 77.1553,143.629 69.8219,143.962 62.5,144.5C 61.1667,143.167 61.1667,141.833 62.5,140.5C 63.2342,141.929 64.4009,142.929 66,143.5C 74.9945,139.847 83.9945,137.18 93,135.5C 93.3173,133.699 93.984,133.366 95,134.5C 97.0693,133.736 99.236,133.236 101.5,133C 100.377,131.956 99.0441,131.29 97.5,131C 101.086,129.892 104.753,129.392 108.5,129.5 Z"/></g>
<g><path style="opacity:1" fill="#aa341a" d="M 150.5,132.5 C 150.158,133.338 149.492,133.672 148.5,133.5C 145.753,133.187 143.086,133.52 140.5,134.5C 140.624,135.107 140.957,135.44 141.5,135.5C 142.66,137.203 141.993,137.869 139.5,137.5C 138.883,137.389 138.383,137.056 138,136.5C 137.881,140.005 136.714,143.005 134.5,145.5C 135.59,142.015 135.59,138.681 134.5,135.5C 133.25,132.979 133.583,130.646 135.5,128.5C 135.5,127.5 135.5,126.5 135.5,125.5C 136.558,126.6 137.392,127.934 138,129.5C 141.971,127.028 145.805,124.362 149.5,121.5C 149.833,121.667 150.167,121.833 150.5,122C 146.817,125.68 142.817,129.014 138.5,132C 142.486,132.499 146.486,132.666 150.5,132.5 Z"/></g>
<g><path style="opacity:1" fill="#f45c07" d="M 103.5,128.5 C 105.415,128.216 107.081,128.549 108.5,129.5C 104.753,129.392 101.086,129.892 97.5,131C 99.0441,131.29 100.377,131.956 101.5,133C 99.236,133.236 97.0693,133.736 95,134.5C 93.984,133.366 93.3173,133.699 93,135.5C 83.9945,137.18 74.9945,139.847 66,143.5C 64.4009,142.929 63.2342,141.929 62.5,140.5C 64.6189,138.283 67.2855,136.95 70.5,136.5C 71.1667,135.5 71.8333,134.5 72.5,133.5C 75.6611,134.056 78.4944,133.056 81,130.5C 82.487,131.253 82.6537,132.086 81.5,133C 82.459,134.464 83.7923,135.297 85.5,135.5C 90.7051,130.889 96.7051,128.556 103.5,128.5 Z"/></g>
<g><path style="opacity:1" fill="#f66906" d="M 108.5,129.5 C 116.26,130.293 123.926,131.627 131.5,133.5C 129.722,135.264 128.389,137.264 127.5,139.5C 125.517,140.471 123.517,141.471 121.5,142.5C 120.249,140.439 118.582,140.106 116.5,141.5C 117.34,143.284 116.507,144.284 114,144.5C 112.212,143.7 110.545,143.366 109,143.5C 108.833,143.833 108.667,144.167 108.5,144.5C 109.376,145.251 110.376,145.751 111.5,146C 108.303,148.632 105.636,147.799 103.5,143.5C 102.333,145.079 101,146.412 99.5,147.5C 99.0679,146.29 98.4013,145.29 97.5,144.5C 93.3656,143.515 89.0323,143.182 84.5,143.5C 88.0208,142.834 91.6875,142.167 95.5,141.5C 97.3845,140.803 97.7178,139.803 96.5,138.5C 97.914,137.376 99.414,136.376 101,135.5C 103.425,135.834 106.258,136.167 109.5,136.5C 110.711,135.726 110.711,134.893 109.5,134C 107.616,133.784 105.949,133.117 104.5,132C 106.437,131.878 107.77,131.045 108.5,129.5 Z"/></g>
<g><path style="opacity:0.133" fill="#f8c3ac" d="M 148.5,133.5 C 146.167,134.167 143.833,134.833 141.5,135.5C 140.957,135.44 140.624,135.107 140.5,134.5C 143.086,133.52 145.753,133.187 148.5,133.5 Z"/></g>
<g><path style="opacity:1" fill="#cf4509" d="M 134.5,135.5 C 135.59,138.681 135.59,142.015 134.5,145.5C 134.027,146.906 133.027,147.573 131.5,147.5C 129.4,147.477 127.567,148.144 126,149.5C 124.56,148.852 123.06,148.519 121.5,148.5C 121.675,150.621 121.341,152.621 120.5,154.5C 118.533,154.739 116.699,154.406 115,153.5C 114.517,154.448 114.351,155.448 114.5,156.5C 112.801,156.34 111.134,156.506 109.5,157C 109.833,157.333 110.167,157.667 110.5,158C 107.907,159.373 105.574,160.873 103.5,162.5C 101.901,162.768 100.568,162.434 99.5,161.5C 104.792,158.512 109.792,155.012 114.5,151C 113.833,150.667 113.167,150.333 112.5,150C 115.69,147.636 118.69,145.136 121.5,142.5C 123.517,141.471 125.517,140.471 127.5,139.5C 129.833,138.167 132.167,136.833 134.5,135.5 Z"/></g>
<g><path style="opacity:0.957" fill="#af503f" d="M 141.5,135.5 C 148.332,140.748 155.332,145.748 162.5,150.5C 159.965,149.651 157.465,148.651 155,147.5C 153.97,147.836 153.47,148.503 153.5,149.5C 148.469,145.793 143.802,141.793 139.5,137.5C 141.993,137.869 142.66,137.203 141.5,135.5 Z"/></g>
<g><path style="opacity:0.082" fill="#fdd4b3" d="M 84.5,143.5 C 89.0323,143.182 93.3656,143.515 97.5,144.5C 91.477,144.502 85.477,144.835 79.5,145.5C 81.1667,144.833 82.8333,144.167 84.5,143.5 Z"/></g>
<g><path style="opacity:1" fill="#e66d32" d="M 45.5,121.5 C 48.1667,122.5 50.8333,123.5 53.5,124.5C 58.9813,126.009 61.3147,129.676 60.5,135.5C 59.9455,139.012 60.6122,142.012 62.5,144.5C 69.8219,143.962 77.1553,143.629 84.5,143.5C 82.8333,144.167 81.1667,144.833 79.5,145.5C 76.5448,146.159 73.5448,146.492 70.5,146.5C 66.8183,146.665 63.1516,146.499 59.5,146C 58.5769,143.959 58.2436,141.792 58.5,139.5C 58.8723,136.383 58.8723,133.383 58.5,130.5C 54.8006,127.65 50.8006,125.317 46.5,123.5C 46.1667,122.833 45.8333,122.167 45.5,121.5 Z"/></g>
<g><path style="opacity:0.192" fill="#fabb95" d="M 58.5,139.5 C 58.2436,141.792 58.5769,143.959 59.5,146C 63.1516,146.499 66.8183,146.665 70.5,146.5C 66.6888,147.645 62.6888,147.812 58.5,147C 57.1857,144.395 57.1857,141.895 58.5,139.5 Z"/></g>
<g><path style="opacity:1" fill="#f87408" d="M 121.5,142.5 C 118.69,145.136 115.69,147.636 112.5,150C 113.167,150.333 113.833,150.667 114.5,151C 109.792,155.012 104.792,158.512 99.5,161.5C 99.5,159.5 99.5,157.5 99.5,155.5C 99.5,152.833 99.5,150.167 99.5,147.5C 101,146.412 102.333,145.079 103.5,143.5C 105.636,147.799 108.303,148.632 111.5,146C 110.376,145.751 109.376,145.251 108.5,144.5C 108.667,144.167 108.833,143.833 109,143.5C 110.545,143.366 112.212,143.7 114,144.5C 116.507,144.284 117.34,143.284 116.5,141.5C 118.582,140.106 120.249,140.439 121.5,142.5 Z"/></g>
<g><path style="opacity:1" fill="#cd6739" d="M 131.5,147.5 C 128.35,150.579 124.683,152.913 120.5,154.5C 121.341,152.621 121.675,150.621 121.5,148.5C 123.06,148.519 124.56,148.852 126,149.5C 127.567,148.144 129.4,147.477 131.5,147.5 Z"/></g>
<g><path style="opacity:0.31" fill="#f6c392" d="M 97.5,144.5 C 98.4013,145.29 99.0679,146.29 99.5,147.5C 99.5,150.167 99.5,152.833 99.5,155.5C 98.5318,157.607 98.1984,159.941 98.5,162.5C 98.0035,156.623 97.6701,150.623 97.5,144.5 Z"/></g>
<g><path style="opacity:0.576" fill="#d49082" d="M 153.5,149.5 C 155.027,149.427 156.027,150.094 156.5,151.5C 154.973,151.573 153.973,150.906 153.5,149.5 Z"/></g>
<g><path style="opacity:0.278" fill="#d89f94" d="M 160.5,154.5 C 162.027,154.427 163.027,155.094 163.5,156.5C 161.973,156.573 160.973,155.906 160.5,154.5 Z"/></g>
<g><path style="opacity:1" fill="#a7361f" d="M 162.5,150.5 C 165.004,151.584 167.337,152.917 169.5,154.5C 171.148,155.927 173.148,156.76 175.5,157C 176.252,157.671 176.586,158.504 176.5,159.5C 176.38,160.586 175.713,161.253 174.5,161.5C 173.151,161.154 171.817,160.821 170.5,160.5C 168.847,160.34 167.514,159.674 166.5,158.5C 166.027,157.094 165.027,156.427 163.5,156.5C 163.027,155.094 162.027,154.427 160.5,154.5C 158.596,154.262 157.262,153.262 156.5,151.5C 156.027,150.094 155.027,149.427 153.5,149.5C 153.47,148.503 153.97,147.836 155,147.5C 157.465,148.651 159.965,149.651 162.5,150.5 Z"/></g>
<g><path style="opacity:0.082" fill="#edb8b7" d="M 169.5,154.5 C 171.854,154.838 174.187,155.338 176.5,156C 178.418,158.109 178.751,160.275 177.5,162.5C 177.737,161.209 177.404,160.209 176.5,159.5C 176.586,158.504 176.252,157.671 175.5,157C 173.148,156.76 171.148,155.927 169.5,154.5 Z"/></g>
<g><path style="opacity:1" fill="#d7774c" d="M 120.5,154.5 C 115.558,158.468 109.891,161.135 103.5,162.5C 105.574,160.873 107.907,159.373 110.5,158C 110.167,157.667 109.833,157.333 109.5,157C 111.134,156.506 112.801,156.34 114.5,156.5C 114.351,155.448 114.517,154.448 115,153.5C 116.699,154.406 118.533,154.739 120.5,154.5 Z"/></g>
<g><path style="opacity:0.196" fill="#e8b1a9" d="M 163.5,156.5 C 165.027,156.427 166.027,157.094 166.5,158.5C 164.973,158.573 163.973,157.906 163.5,156.5 Z"/></g>
<g><path style="opacity:0.761" fill="#db8d4e" d="M 99.5,155.5 C 99.5,157.5 99.5,159.5 99.5,161.5C 100.568,162.434 101.901,162.768 103.5,162.5C 101.833,163.833 100.167,163.833 98.5,162.5C 98.1984,159.941 98.5318,157.607 99.5,155.5 Z"/></g>
<g><path style="opacity:0.984" fill="#b9695c" d="M 176.5,159.5 C 177.404,160.209 177.737,161.209 177.5,162.5C 177.631,163.376 177.298,164.043 176.5,164.5C 174.089,163.639 172.089,162.306 170.5,160.5C 171.817,160.821 173.151,161.154 174.5,161.5C 175.713,161.253 176.38,160.586 176.5,159.5 Z"/></g>
<g><path style="opacity:0.211" fill="#cecece" d="M 63.5,195.5 C 79.7646,195.468 96.0979,195.634 112.5,196C 102.985,197.023 93.4853,197.19 84,196.5C 82.0271,196.309 80.5271,196.976 79.5,198.5C 58.6629,199.762 37.9962,199.596 17.5,198C 18.5,197.667 19.5,197.333 20.5,197C 35.0059,196.831 49.3392,196.331 63.5,195.5 Z"/></g>
<g><path style="opacity:0.078" fill="#cecece" d="M 137.5,196.5 C 147.325,195.342 157.325,195.175 167.5,196C 171.921,196.417 176.254,197.25 180.5,198.5C 168.514,199.666 156.514,199.833 144.5,199C 142.355,197.711 140.022,196.878 137.5,196.5 Z"/></g>
</svg>
