<?xml version="1.0" encoding="UTF-8"?>
<!DOCTYPE svg PUBLIC "-//W3C//DTD SVG 1.1//EN" "http://www.w3.org/Graphics/SVG/1.1/DTD/svg11.dtd">
<svg xmlns="http://www.w3.org/2000/svg" version="1.1" width="300px" height="168px" style="shape-rendering:geometricPrecision; text-rendering:geometricPrecision; image-rendering:optimizeQuality; fill-rule:evenodd; clip-rule:evenodd" xmlns:xlink="http://www.w3.org/1999/xlink">
<g><path style="opacity:1" fill="#093887" d="M -0.5,-0.5 C 7.5,-0.5 15.5,-0.5 23.5,-0.5C 22.9579,3.54431 23.7912,7.21097 26,10.5C 27.892,9.86997 29.5587,8.86997 31,7.5C 32.0379,11.9686 30.5379,13.3019 26.5,11.5C 26.3537,13.9424 27.187,14.6091 29,13.5C 30.4177,16.001 31.4177,15.6677 32,12.5C 32.4995,18.8246 32.6662,25.1579 32.5,31.5C 36.8352,31.7004 41.0019,31.7004 45,31.5C 47.2205,33.6469 48.3871,36.3136 48.5,39.5C 50.8333,39.5 53.1667,39.5 55.5,39.5C 55.5,40.8333 55.5,42.1667 55.5,43.5C 57.8333,43.5 60.1667,43.5 62.5,43.5C 62.33,44.8221 62.6634,45.9887 63.5,47C 68.5,47.3333 73.5,47.6667 78.5,48C 79.3291,52.4417 79.9958,56.9417 80.5,61.5C 85.2137,61.1734 89.8804,61.5067 94.5,62.5C 92.8333,63.1667 91.1667,63.8333 89.5,64.5C 93.9156,64.8818 97.9156,65.8818 101.5,67.5C 98.8875,68.0955 98.8875,68.9288 101.5,70C 99.5273,70.4955 97.5273,70.6621 95.5,70.5C 95.5,69.5 95.5,68.5 95.5,67.5C 91.3705,67.4657 87.3705,66.799 83.5,65.5C 81.0194,65.6766 79.1861,64.6766 78,62.5C 77.6667,62.8333 77.3333,63.1667 77,63.5C 75.6487,61.981 74.1487,60.6477 72.5,59.5C 71.7189,60.7287 71.2189,62.062 71,63.5C 70.7508,62.376 70.2508,61.376 69.5,60.5C 68.2888,61.2739 68.2888,62.1072 69.5,63C 67.8016,62.5031 66.1349,62.6698 64.5,63.5C 63.7579,61.8918 63.5913,60.2251 64,58.5C 62.6667,59.1667 61.3333,59.8333 60,60.5C 59.5,58.6667 58.3333,57.5 56.5,57C 63.6518,56.6054 64.8185,54.1054 60,49.5C 59,50.1667 58,50.8333 57,51.5C 53.9814,51.6455 50.8148,51.3122 47.5,50.5C 47.2577,47.681 47.2577,44.681 47.5,41.5C 42.4889,41.6659 37.4889,41.4993 32.5,41C 34.8333,40.6667 37.1667,40.3333 39.5,40C 36.854,39.5026 34.1873,39.3359 31.5,39.5C 31.5,40.5 31.5,41.5 31.5,42.5C 25.8006,44.3759 21.1339,43.2092 17.5,39C 18.6241,38.1612 19.2908,36.9945 19.5,35.5C 17.6169,31.7222 16.2836,27.7222 15.5,23.5C 10.1667,23.5 4.83333,23.5 -0.5,23.5C -0.5,15.5 -0.5,7.5 -0.5,-0.5 Z"/></g>
<g><path style="opacity:1" fill="#072967" d="M 105.5,-0.5 C 123.5,-0.5 141.5,-0.5 159.5,-0.5C 159.5,4.83333 159.5,10.1667 159.5,15.5C 164.606,15.5015 169.44,15.8348 174,16.5C 174.451,14.0712 175.285,13.9045 176.5,16C 175.73,18.5669 174.73,21.0669 173.5,23.5C 177.032,25.7246 177.032,27.5579 173.5,29C 175.464,29.624 177.131,29.124 178.5,27.5C 178.833,27.8333 179.167,28.1667 179.5,28.5C 176.771,30.3671 177.104,31.3671 180.5,31.5C 180.5,30.5 180.5,29.5 180.5,28.5C 181.833,28.5 183.167,28.5 184.5,28.5C 184.5,29.8333 185.167,30.5 186.5,30.5C 187.985,29.0651 189.318,29.2317 190.5,31C 193.146,31.4974 195.813,31.6641 198.5,31.5C 196.94,33.1294 197.273,34.296 199.5,35C 199,35.1667 198.5,35.3333 198,35.5C 195.953,34.3906 193.787,33.7239 191.5,33.5C 191.5,34.5 191.5,35.5 191.5,36.5C 188.833,36.5 186.167,36.5 183.5,36.5C 183.34,38.1992 183.506,39.8659 184,41.5C 184.333,40.8333 184.667,40.1667 185,39.5C 185.21,41.0581 185.71,42.3915 186.5,43.5C 187.263,44.2679 188.263,44.7679 189.5,45C 188.552,45.4828 187.552,45.6495 186.5,45.5C 186.649,46.552 186.483,47.552 186,48.5C 185.259,47.3595 184.425,47.3595 183.5,48.5C 182.143,46.4346 180.81,44.4346 179.5,42.5C 179.082,41.7784 178.416,41.2784 177.5,41C 180.121,40.0944 179.954,39.5944 177,39.5C 175.635,39.8443 174.468,40.5109 173.5,41.5C 172.808,40.9747 172.308,40.3081 172,39.5C 170.886,43.4557 170.053,43.4557 169.5,39.5C 167.833,39.5 166.167,39.5 164.5,39.5C 164.833,42.5 163.5,43.8333 160.5,43.5C 160.762,44.9778 160.429,46.3112 159.5,47.5C 159.795,46.1745 159.295,44.8412 158,43.5C 157.577,44.9561 156.744,45.4561 155.5,45C 155.957,44.586 156.291,44.086 156.5,43.5C 155.234,42.2764 154.067,40.9431 153,39.5C 149.891,39.6771 146.724,39.6771 143.5,39.5C 140.937,39.737 140.937,40.237 143.5,41C 140.942,42.3799 140.942,43.8799 143.5,45.5C 143.137,46.1835 142.804,46.8501 142.5,47.5C 140.358,47.3104 138.025,47.1437 135.5,47C 134.214,43.6421 132.047,42.1421 129,42.5C 127.152,39.9586 124.652,38.9586 121.5,39.5C 122.833,36.8333 124.167,34.1667 125.5,31.5C 124.167,31.5 122.833,31.5 121.5,31.5C 120.955,34.9444 118.955,36.1111 115.5,35C 116.308,34.6924 116.975,34.1924 117.5,33.5C 116.01,32.1743 114.676,30.6743 113.5,29C 114.549,28.5078 115.549,28.6744 116.5,29.5C 118.49,28.5373 118.823,27.204 117.5,25.5C 116.808,26.0253 116.308,26.6919 116,27.5C 113.928,23.4251 112.428,23.7584 111.5,28.5C 112.326,29.451 112.492,30.451 112,31.5C 110.625,29.0632 110.125,26.3965 110.5,23.5C 108.143,23.3367 105.81,23.5034 103.5,24C 102.773,25.3988 102.273,26.8988 102,28.5C 101.549,26.0712 100.715,25.9045 99.5,28C 99.8333,28.3333 100.167,28.6667 100.5,29C 98.7258,30.7557 97.0591,30.7557 95.5,29C 96.7375,28.7679 97.7375,28.2679 98.5,27.5C 98.5,26.1667 97.8333,25.5 96.5,25.5C 96.3354,22.4816 96.502,19.4816 97,16.5C 97.7504,15.8742 98.5838,15.3742 99.5,15C 98.8333,12.6667 98.1667,10.3333 97.5,8C 99.0368,6.89037 99.7035,5.39037 99.5,3.5C 102.535,3.65308 104.535,2.31975 105.5,-0.5 Z"/></g>
<g><path style="opacity:1" fill="#072963" d="M 159.5,-0.5 C 191.5,-0.5 223.5,-0.5 255.5,-0.5C 255.5,2.83333 255.5,6.16667 255.5,9.5C 250.167,9.5 244.833,9.5 239.5,9.5C 239.739,11.4672 239.406,13.3005 238.5,15C 233.511,15.4993 228.511,15.6659 223.5,15.5C 224.31,22.4198 222.977,28.7532 219.5,34.5C 218.833,34.5 218.167,34.5 217.5,34.5C 215.18,33.6566 213.013,33.6566 211,34.5C 210.383,33.5509 210.549,32.7175 211.5,32C 207.97,31.3282 206.637,29.1616 207.5,25.5C 203.486,25.3345 199.486,25.5012 195.5,26C 196.685,27.353 198.019,28.5197 199.5,29.5C 199.137,30.1835 198.804,30.8501 198.5,31.5C 195.813,31.6641 193.146,31.4974 190.5,31C 189.318,29.2317 187.985,29.0651 186.5,30.5C 185.167,30.5 184.5,29.8333 184.5,28.5C 183.167,28.5 181.833,28.5 180.5,28.5C 180.5,29.5 180.5,30.5 180.5,31.5C 177.104,31.3671 176.771,30.3671 179.5,28.5C 179.167,28.1667 178.833,27.8333 178.5,27.5C 177.131,29.124 175.464,29.624 173.5,29C 177.032,27.5579 177.032,25.7246 173.5,23.5C 174.73,21.0669 175.73,18.5669 176.5,16C 175.285,13.9045 174.451,14.0712 174,16.5C 169.44,15.8348 164.606,15.5015 159.5,15.5C 159.5,10.1667 159.5,4.83333 159.5,-0.5 Z"/></g>
<g><path style="opacity:1" fill="#052866" d="M 255.5,-0.5 C 265.167,-0.5 274.833,-0.5 284.5,-0.5C 284.336,2.1873 284.503,4.85397 285,7.5C 285.75,8.12576 286.584,8.62576 287.5,9C 284.904,10.1356 282.237,10.969 279.5,11.5C 279.36,9.87623 280.027,8.70956 281.5,8C 279.866,7.50649 278.199,7.33982 276.5,7.5C 276.5,10.1667 276.5,12.8333 276.5,15.5C 274.856,15.2865 273.356,15.6198 272,16.5C 271.258,19.0907 270.758,21.4241 270.5,23.5C 267.305,22.1713 266.972,20.5046 269.5,18.5C 269,18.1667 268.5,17.8333 268,17.5C 266.7,18.7073 265.2,19.3739 263.5,19.5C 264.095,22.3463 264.095,25.3463 263.5,28.5C 260.606,28.9577 258.106,28.291 256,26.5C 255.506,28.1341 255.34,29.8008 255.5,31.5C 250.448,31.4502 245.448,31.9502 240.5,33C 239.833,35 239.167,37 238.5,39C 239.15,40.6092 238.65,42.1092 237,43.5C 236.167,41.5 235.333,39.5 234.5,37.5C 233.522,37.9767 232.689,38.6433 232,39.5C 232.019,37.8925 232.185,36.2259 232.5,34.5C 229.305,35.0393 226.805,34.0393 225,31.5C 223.794,34.3013 221.961,35.3013 219.5,34.5C 222.977,28.7532 224.31,22.4198 223.5,15.5C 228.511,15.6659 233.511,15.4993 238.5,15C 239.406,13.3005 239.739,11.4672 239.5,9.5C 244.833,9.5 250.167,9.5 255.5,9.5C 255.5,6.16667 255.5,2.83333 255.5,-0.5 Z"/></g>
<g><path style="opacity:1" fill="#072d6f" d="M 62.5,-0.5 C 76.8333,-0.5 91.1667,-0.5 105.5,-0.5C 104.535,2.31975 102.535,3.65308 99.5,3.5C 99.7035,5.39037 99.0368,6.89037 97.5,8C 98.1667,10.3333 98.8333,12.6667 99.5,15C 98.5838,15.3742 97.7504,15.8742 97,16.5C 96.502,19.4816 96.3354,22.4816 96.5,25.5C 97.8333,25.5 98.5,26.1667 98.5,27.5C 97.7375,28.2679 96.7375,28.7679 95.5,29C 97.0591,30.7557 98.7258,30.7557 100.5,29C 100.167,28.6667 99.8333,28.3333 99.5,28C 100.715,25.9045 101.549,26.0712 102,28.5C 102.273,26.8988 102.773,25.3988 103.5,24C 105.81,23.5034 108.143,23.3367 110.5,23.5C 110.125,26.3965 110.625,29.0632 112,31.5C 112.492,30.451 112.326,29.451 111.5,28.5C 112.428,23.7584 113.928,23.4251 116,27.5C 116.308,26.6919 116.808,26.0253 117.5,25.5C 118.823,27.204 118.49,28.5373 116.5,29.5C 115.549,28.6744 114.549,28.5078 113.5,29C 114.676,30.6743 116.01,32.1743 117.5,33.5C 116.975,34.1924 116.308,34.6924 115.5,35C 118.955,36.1111 120.955,34.9444 121.5,31.5C 122.833,31.5 124.167,31.5 125.5,31.5C 124.167,34.1667 122.833,36.8333 121.5,39.5C 124.652,38.9586 127.152,39.9586 129,42.5C 132.047,42.1421 134.214,43.6421 135.5,47C 138.025,47.1437 140.358,47.3104 142.5,47.5C 145.346,46.9054 148.346,46.9054 151.5,47.5C 151.5,48.8333 151.5,50.1667 151.5,51.5C 143.5,51.5 135.5,51.5 127.5,51.5C 127.66,49.8008 127.494,48.1341 127,46.5C 124.691,45.0248 122.524,43.3581 120.5,41.5C 119.555,44.7879 118.888,48.1212 118.5,51.5C 116.833,51.5 115.167,51.5 113.5,51.5C 112.751,50.469 112.085,49.3024 111.5,48C 109.749,46.8555 107.916,46.3555 106,46.5C 105.46,44.8654 105.96,43.5321 107.5,42.5C 102.582,41.0035 100.582,37.6702 101.5,32.5C 98.5569,32.3535 95.7236,31.6868 93,30.5C 92.5,30.6667 92,30.8333 91.5,31C 94.0443,32.0985 94.0443,33.2652 91.5,34.5C 90.8333,33.5 90.1667,32.5 89.5,31.5C 86.0922,32.8944 82.7589,32.7278 79.5,31C 78.5308,26.2633 78.1975,21.43 78.5,16.5C 75.1326,16.5429 71.7992,16.2096 68.5,15.5C 66.626,15.3898 65.126,16.0564 64,17.5C 61.8053,14.0596 62.6387,12.2263 66.5,12C 65.2888,12.8928 65.2888,13.7261 66.5,14.5C 68.2199,13.066 70.2199,12.2326 72.5,12C 73.4231,9.95917 73.7564,7.7925 73.5,5.5C 70.3085,4.28012 66.9752,3.44679 63.5,3C 62.6634,1.98873 62.33,0.822066 62.5,-0.5 Z"/></g>
<g><path style="opacity:1" fill="#cbebff" d="M 65.5,0.5 C 67.337,0.639452 67.6704,1.30612 66.5,2.5C 65.7025,2.04311 65.3691,1.37644 65.5,0.5 Z"/></g>
<g><path style="opacity:1" fill="#072d6d" d="M 284.5,-0.5 C 289.5,-0.5 294.5,-0.5 299.5,-0.5C 299.5,10.1667 299.5,20.8333 299.5,31.5C 295.563,31.2065 291.73,31.5399 288,32.5C 287.261,31.4258 286.261,30.7591 285,30.5C 282.147,32.259 279.48,34.259 277,36.5C 275.706,38.9617 274.206,41.2951 272.5,43.5C 269.788,41.7397 266.788,41.073 263.5,41.5C 262.519,36.8477 259.852,35.5144 255.5,37.5C 256.368,40.7312 256.368,44.0645 255.5,47.5C 252.091,47.7507 248.758,47.4173 245.5,46.5C 244.522,46.9767 243.689,47.6433 243,48.5C 241.506,47.2528 240.006,47.2528 238.5,48.5C 239.506,49.3957 239.506,50.0623 238.5,50.5C 237.808,49.9747 237.308,49.3081 237,48.5C 236.395,50.4812 235.395,50.8146 234,49.5C 233.667,50.1667 233.333,50.8333 233,51.5C 232.182,46.2063 231.682,46.2063 231.5,51.5C 225.824,51.6661 220.157,51.4994 214.5,51C 213.809,49.9326 213.309,48.7659 213,47.5C 212.431,51.3605 211.598,51.3605 210.5,47.5C 209.678,49.1386 209.011,50.8053 208.5,52.5C 207.549,51.0813 207.216,49.4147 207.5,47.5C 201.833,47.5 196.167,47.5 190.5,47.5C 190.433,45.5992 190.767,43.7659 191.5,42C 189.885,38.9122 189.218,39.4122 189.5,43.5C 188.5,43.5 187.5,43.5 186.5,43.5C 185.71,42.3915 185.21,41.0581 185,39.5C 184.667,40.1667 184.333,40.8333 184,41.5C 183.506,39.8659 183.34,38.1992 183.5,36.5C 186.167,36.5 188.833,36.5 191.5,36.5C 191.5,35.5 191.5,34.5 191.5,33.5C 193.787,33.7239 195.953,34.3906 198,35.5C 198.5,35.3333 199,35.1667 199.5,35C 197.273,34.296 196.94,33.1294 198.5,31.5C 198.804,30.8501 199.137,30.1835 199.5,29.5C 198.019,28.5197 196.685,27.353 195.5,26C 199.486,25.5012 203.486,25.3345 207.5,25.5C 206.637,29.1616 207.97,31.3282 211.5,32C 210.549,32.7175 210.383,33.5509 211,34.5C 213.013,33.6566 215.18,33.6566 217.5,34.5C 218.167,37.1667 218.833,37.1667 219.5,34.5C 221.961,35.3013 223.794,34.3013 225,31.5C 226.805,34.0393 229.305,35.0393 232.5,34.5C 232.185,36.2259 232.019,37.8925 232,39.5C 232.689,38.6433 233.522,37.9767 234.5,37.5C 235.333,39.5 236.167,41.5 237,43.5C 238.65,42.1092 239.15,40.6092 238.5,39C 239.167,37 239.833,35 240.5,33C 245.448,31.9502 250.448,31.4502 255.5,31.5C 255.34,29.8008 255.506,28.1341 256,26.5C 258.106,28.291 260.606,28.9577 263.5,28.5C 264.095,25.3463 264.095,22.3463 263.5,19.5C 265.2,19.3739 266.7,18.7073 268,17.5C 268.5,17.8333 269,18.1667 269.5,18.5C 266.972,20.5046 267.305,22.1713 270.5,23.5C 270.758,21.4241 271.258,19.0907 272,16.5C 273.356,15.6198 274.856,15.2865 276.5,15.5C 276.5,12.8333 276.5,10.1667 276.5,7.5C 278.199,7.33982 279.866,7.50649 281.5,8C 280.027,8.70956 279.36,9.87623 279.5,11.5C 282.237,10.969 284.904,10.1356 287.5,9C 286.584,8.62576 285.75,8.12576 285,7.5C 284.503,4.85397 284.336,2.1873 284.5,-0.5 Z"/></g>
<g><path style="opacity:1" fill="#aecfed" d="M 103.5,10.5 C 104.5,10.5 105.5,10.5 106.5,10.5C 106.5,11.5 106.5,12.5 106.5,13.5C 105.5,13.5 104.5,13.5 103.5,13.5C 103.5,12.5 103.5,11.5 103.5,10.5 Z"/></g>
<g><path style="opacity:1" fill="#083580" d="M 23.5,-0.5 C 30.1667,-0.5 36.8333,-0.5 43.5,-0.5C 43.5858,0.495904 43.2524,1.32924 42.5,2C 40.2852,3.0438 37.9519,3.71047 35.5,4C 34.2567,5.15445 33.2567,6.48779 32.5,8C 34.291,10.1062 34.9577,12.6062 34.5,15.5C 37.5184,15.6646 40.5184,15.498 43.5,15C 44.2489,13.2663 44.7489,11.433 45,9.5C 45.4117,11.9969 46.5784,13.9969 48.5,15.5C 47.7004,22.2245 50.367,26.7245 56.5,29C 57.0468,31.6402 58.7134,33.9735 61.5,36C 64.8168,36.4983 68.1501,36.665 71.5,36.5C 71.5,37.5 71.5,38.5 71.5,39.5C 69.4727,39.3379 67.4727,39.5045 65.5,40C 68.4592,41.9156 71.6259,43.4156 75,44.5C 76.6581,44.3248 77.9914,43.6582 79,42.5C 80.2988,42.9662 81.7988,42.9662 83.5,42.5C 83.5743,46.1611 82.5743,46.8277 80.5,44.5C 80.2635,45.2472 79.9302,46.0805 79.5,47C 86.5508,49.0698 92.8841,52.4032 98.5,57C 102.486,57.4988 106.486,57.6655 110.5,57.5C 110.33,58.8221 110.663,59.9887 111.5,61C 113.936,60.9466 116.269,61.1133 118.5,61.5C 117.897,62.6348 117.564,63.6348 117.5,64.5C 115.991,62.0852 114.324,61.9185 112.5,64C 114.788,64.8221 117.122,65.4888 119.5,66C 117.513,67.3189 116.346,69.1523 116,71.5C 114.565,69.7887 112.731,68.622 110.5,68C 112.207,67.8047 113.874,67.8047 115.5,68C 112.887,66.9591 110.554,65.4591 108.5,63.5C 107.713,64.2421 107.047,65.0754 106.5,66C 107.756,66.4169 108.423,67.2502 108.5,68.5C 107.504,68.5858 106.671,68.2524 106,67.5C 106.333,68.8333 106.667,70.1667 107,71.5C 105.008,70.3353 103.175,69.002 101.5,67.5C 97.9156,65.8818 93.9156,64.8818 89.5,64.5C 91.1667,63.8333 92.8333,63.1667 94.5,62.5C 89.8804,61.5067 85.2137,61.1734 80.5,61.5C 79.9958,56.9417 79.3291,52.4417 78.5,48C 73.5,47.6667 68.5,47.3333 63.5,47C 62.6634,45.9887 62.33,44.8221 62.5,43.5C 60.1667,43.5 57.8333,43.5 55.5,43.5C 55.5,42.1667 55.5,40.8333 55.5,39.5C 53.1667,39.5 50.8333,39.5 48.5,39.5C 48.3871,36.3136 47.2205,33.6469 45,31.5C 41.0019,31.7004 36.8352,31.7004 32.5,31.5C 32.6662,25.1579 32.4995,18.8246 32,12.5C 31.4177,15.6677 30.4177,16.001 29,13.5C 27.187,14.6091 26.3537,13.9424 26.5,11.5C 30.5379,13.3019 32.0379,11.9686 31,7.5C 29.5587,8.86997 27.892,9.86997 26,10.5C 23.7912,7.21097 22.9579,3.54431 23.5,-0.5 Z"/></g>
<g><path style="opacity:1" fill="#88aeed" d="M 96.5,25.5 C 97.8333,25.5 98.5,26.1667 98.5,27.5C 97.1667,27.5 96.5,26.8333 96.5,25.5 Z"/></g>
<g><path style="opacity:1" fill="#8fb1e4" d="M 184.5,28.5 C 185.833,28.5 186.5,29.1667 186.5,30.5C 186.5,29.1667 185.833,28.5 184.5,28.5 Z"/></g>
<g><path style="opacity:1" fill="#80a3dd" d="M 215.5,29.5 C 217.337,29.6395 217.67,30.3061 216.5,31.5C 215.702,31.0431 215.369,30.3764 215.5,29.5 Z"/></g>
<g><path style="opacity:1" fill="#083279" d="M 43.5,-0.5 C 49.8333,-0.5 56.1667,-0.5 62.5,-0.5C 62.33,0.822066 62.6634,1.98873 63.5,3C 66.9752,3.44679 70.3085,4.28012 73.5,5.5C 73.7564,7.7925 73.4231,9.95917 72.5,12C 70.2199,12.2326 68.2199,13.066 66.5,14.5C 65.2888,13.7261 65.2888,12.8928 66.5,12C 62.6387,12.2263 61.8053,14.0596 64,17.5C 65.126,16.0564 66.626,15.3898 68.5,15.5C 71.7992,16.2096 75.1326,16.5429 78.5,16.5C 78.1975,21.43 78.5308,26.2633 79.5,31C 82.7589,32.7278 86.0922,32.8944 89.5,31.5C 90.1667,32.5 90.8333,33.5 91.5,34.5C 94.0443,33.2652 94.0443,32.0985 91.5,31C 92,30.8333 92.5,30.6667 93,30.5C 95.7236,31.6868 98.5569,32.3535 101.5,32.5C 100.582,37.6702 102.582,41.0035 107.5,42.5C 105.96,43.5321 105.46,44.8654 106,46.5C 107.916,46.3555 109.749,46.8555 111.5,48C 112.085,49.3024 112.751,50.469 113.5,51.5C 114.68,54.0319 115.68,56.6986 116.5,59.5C 120.047,59.22 123.713,59.22 127.5,59.5C 127.5,58.1667 127.5,56.8333 127.5,55.5C 142.848,55.1673 158.181,55.5006 173.5,56.5C 177.174,57.7554 180.84,59.0887 184.5,60.5C 186.163,59.1246 187.497,59.458 188.5,61.5C 191.099,58.9065 190.766,57.4065 187.5,57C 192.142,55.4228 196.475,55.5894 200.5,57.5C 201.451,56.6744 202.451,56.5078 203.5,57C 202.324,58.6743 200.99,60.1743 199.5,61.5C 199.833,61.8333 200.167,62.1667 200.5,62.5C 201.532,60.9604 202.865,60.4604 204.5,61C 203.226,61.9772 203.226,62.8106 204.5,63.5C 203.444,66.861 202.444,70.1944 201.5,73.5C 198.833,74.1667 198.833,74.8333 201.5,75.5C 200.432,76.4345 199.099,76.7678 197.5,76.5C 196.795,73.2739 195.795,70.1072 194.5,67C 194.833,66.6667 195.167,66.3333 195.5,66C 194.207,65.51 192.873,65.3433 191.5,65.5C 191.67,66.8221 191.337,67.9887 190.5,69C 187.833,69.6667 185.167,69.6667 182.5,69C 180.162,67.8378 178.828,66.0044 178.5,63.5C 175.275,63.0917 172.275,62.0917 169.5,60.5C 167.185,60.7991 167.185,61.6325 169.5,63C 164.7,63.5483 160.033,64.0483 155.5,64.5C 157.396,65.9 158.729,67.7334 159.5,70C 158.924,71.7144 157.757,72.8811 156,73.5C 145.906,71.434 135.74,71.1007 125.5,72.5C 124.833,69.8333 124.167,69.8333 123.5,72.5C 122.504,72.4142 121.671,72.7476 121,73.5C 120.692,72.6919 120.192,72.0253 119.5,71.5C 118.634,75.5941 116.801,76.2608 114,73.5C 113.667,73.8333 113.333,74.1667 113,74.5C 110.837,72.8587 109.337,70.8587 108.5,68.5C 108.423,67.2502 107.756,66.4169 106.5,66C 107.047,65.0754 107.713,64.2421 108.5,63.5C 110.554,65.4591 112.887,66.9591 115.5,68C 113.874,67.8047 112.207,67.8047 110.5,68C 112.731,68.622 114.565,69.7887 116,71.5C 116.346,69.1523 117.513,67.3189 119.5,66C 117.122,65.4888 114.788,64.8221 112.5,64C 114.324,61.9185 115.991,62.0852 117.5,64.5C 117.564,63.6348 117.897,62.6348 118.5,61.5C 116.269,61.1133 113.936,60.9466 111.5,61C 110.663,59.9887 110.33,58.8221 110.5,57.5C 106.486,57.6655 102.486,57.4988 98.5,57C 92.8841,52.4032 86.5508,49.0698 79.5,47C 79.9302,46.0805 80.2635,45.2472 80.5,44.5C 82.5743,46.8277 83.5743,46.1611 83.5,42.5C 81.7988,42.9662 80.2988,42.9662 79,42.5C 77.9914,43.6582 76.6581,44.3248 75,44.5C 71.6259,43.4156 68.4592,41.9156 65.5,40C 67.4727,39.5045 69.4727,39.3379 71.5,39.5C 71.5,38.5 71.5,37.5 71.5,36.5C 68.1501,36.665 64.8168,36.4983 61.5,36C 58.7134,33.9735 57.0468,31.6402 56.5,29C 50.367,26.7245 47.7004,22.2245 48.5,15.5C 46.5784,13.9969 45.4117,11.9969 45,9.5C 44.7489,11.433 44.2489,13.2663 43.5,15C 40.5184,15.498 37.5184,15.6646 34.5,15.5C 34.9577,12.6062 34.291,10.1062 32.5,8C 33.2567,6.48779 34.2567,5.15445 35.5,4C 37.9519,3.71047 40.2852,3.0438 42.5,2C 43.2524,1.32924 43.5858,0.495904 43.5,-0.5 Z"/></g>
<g><path style="opacity:1" fill="#d5fffe" d="M 37.5,10.5 C 39.337,10.6395 39.6704,11.3061 38.5,12.5C 37.7025,12.0431 37.3691,11.3764 37.5,10.5 Z"/></g>
<g><path style="opacity:1" fill="#84aae4" d="M 217.5,34.5 C 218.167,34.5 218.833,34.5 219.5,34.5C 218.833,37.1667 218.167,37.1667 217.5,34.5 Z"/></g>
<g><path style="opacity:1" fill="#c2f1ff" d="M 23.5,35.5 C 25.337,35.6395 25.6704,36.3061 24.5,37.5C 23.7025,37.0431 23.3691,36.3764 23.5,35.5 Z"/></g>
<g><path style="opacity:1" fill="#0b3073" d="M 179.5,42.5 C 180.81,44.4346 182.143,46.4346 183.5,48.5C 184.425,47.3595 185.259,47.3595 186,48.5C 186.483,47.552 186.649,46.552 186.5,45.5C 187.552,45.6495 188.552,45.4828 189.5,45C 188.263,44.7679 187.263,44.2679 186.5,43.5C 187.5,43.5 188.5,43.5 189.5,43.5C 189.218,39.4122 189.885,38.9122 191.5,42C 190.767,43.7659 190.433,45.5992 190.5,47.5C 196.167,47.5 201.833,47.5 207.5,47.5C 207.216,49.4147 207.549,51.0813 208.5,52.5C 208.056,54.1132 207.056,55.2798 205.5,56C 207.108,56.658 208.275,56.158 209,54.5C 209.195,56.2072 209.195,57.8739 209,59.5C 210.388,58.4464 211.888,58.2797 213.5,59C 211.867,59.4796 210.534,60.3129 209.5,61.5C 207.452,60.6745 205.785,61.3411 204.5,63.5C 203.226,62.8106 203.226,61.9772 204.5,61C 202.865,60.4604 201.532,60.9604 200.5,62.5C 200.167,62.1667 199.833,61.8333 199.5,61.5C 200.99,60.1743 202.324,58.6743 203.5,57C 202.451,56.5078 201.451,56.6744 200.5,57.5C 196.475,55.5894 192.142,55.4228 187.5,57C 190.766,57.4065 191.099,58.9065 188.5,61.5C 187.497,59.458 186.163,59.1246 184.5,60.5C 180.84,59.0887 177.174,57.7554 173.5,56.5C 158.181,55.5006 142.848,55.1673 127.5,55.5C 127.5,56.8333 127.5,58.1667 127.5,59.5C 123.713,59.22 120.047,59.22 116.5,59.5C 115.68,56.6986 114.68,54.0319 113.5,51.5C 115.167,51.5 116.833,51.5 118.5,51.5C 118.888,48.1212 119.555,44.7879 120.5,41.5C 122.524,43.3581 124.691,45.0248 127,46.5C 127.494,48.1341 127.66,49.8008 127.5,51.5C 135.5,51.5 143.5,51.5 151.5,51.5C 151.5,50.1667 151.5,48.8333 151.5,47.5C 148.346,46.9054 145.346,46.9054 142.5,47.5C 142.804,46.8501 143.137,46.1835 143.5,45.5C 140.942,43.8799 140.942,42.3799 143.5,41C 140.937,40.237 140.937,39.737 143.5,39.5C 146.724,39.6771 149.891,39.6771 153,39.5C 154.067,40.9431 155.234,42.2764 156.5,43.5C 156.291,44.086 155.957,44.586 155.5,45C 156.744,45.4561 157.577,44.9561 158,43.5C 159.295,44.8412 159.795,46.1745 159.5,47.5C 160.429,46.3112 160.762,44.9778 160.5,43.5C 163.5,43.8333 164.833,42.5 164.5,39.5C 166.167,39.5 167.833,39.5 169.5,39.5C 170.053,43.4557 170.886,43.4557 172,39.5C 172.308,40.3081 172.808,40.9747 173.5,41.5C 174.468,40.5109 175.635,39.8443 177,39.5C 179.954,39.5944 180.121,40.0944 177.5,41C 178.416,41.2784 179.082,41.7784 179.5,42.5 Z"/></g>
<g><path style="opacity:1" fill="#b1d8ff" d="M 179.5,42.5 C 179.361,44.337 178.694,44.6704 177.5,43.5C 177.957,42.7025 178.624,42.3691 179.5,42.5 Z"/></g>
<g><path style="opacity:1" fill="#0c3f93" d="M -0.5,23.5 C 4.83333,23.5 10.1667,23.5 15.5,23.5C 16.2836,27.7222 17.6169,31.7222 19.5,35.5C 19.2908,36.9945 18.6241,38.1612 17.5,39C 21.1339,43.2092 25.8006,44.3759 31.5,42.5C 31.5,41.5 31.5,40.5 31.5,39.5C 34.1873,39.3359 36.854,39.5026 39.5,40C 37.1667,40.3333 34.8333,40.6667 32.5,41C 37.4889,41.4993 42.4889,41.6659 47.5,41.5C 47.2577,44.681 47.2577,47.681 47.5,50.5C 50.8148,51.3122 53.9814,51.6455 57,51.5C 58,50.8333 59,50.1667 60,49.5C 64.8185,54.1054 63.6518,56.6054 56.5,57C 58.3333,57.5 59.5,58.6667 60,60.5C 61.3333,59.8333 62.6667,59.1667 64,58.5C 63.5913,60.2251 63.7579,61.8918 64.5,63.5C 66.1349,62.6698 67.8016,62.5031 69.5,63C 68.2888,62.1072 68.2888,61.2739 69.5,60.5C 70.2508,61.376 70.7508,62.376 71,63.5C 71.2189,62.062 71.7189,60.7287 72.5,59.5C 74.1487,60.6477 75.6487,61.981 77,63.5C 77.3333,63.1667 77.6667,62.8333 78,62.5C 79.1861,64.6766 81.0194,65.6766 83.5,65.5C 86.1271,69.7112 89.4604,73.3779 93.5,76.5C 92.6744,77.451 92.5078,78.451 93,79.5C 94.2917,78.2089 95.4583,78.2089 96.5,79.5C 95.1713,83.684 92.1713,85.3507 87.5,84.5C 86.3111,81.7937 84.4778,79.4603 82,77.5C 81.0546,77.9054 80.3879,78.572 80,79.5C 79.6905,78.2341 79.1905,77.0674 78.5,76C 73.8333,75.6667 69.1667,75.3333 64.5,75C 63.6667,74.1667 62.8333,73.3333 62,72.5C 59.2595,73.2822 56.4262,73.7822 53.5,74C 56.1667,74.6667 56.1667,75.3333 53.5,76C 55.3008,76.3173 55.6341,76.984 54.5,78C 52.4528,80.3028 50.1194,80.8028 47.5,79.5C 47.6427,77.7376 47.3094,76.0709 46.5,74.5C 41.9058,73.0205 37.2391,71.8538 32.5,71C 30.3923,67.6601 28.8923,67.8268 28,71.5C 27.6667,70.1667 27.3333,68.8333 27,67.5C 26.3457,68.6956 25.8457,68.6956 25.5,67.5C 26.1081,63.4915 25.4414,63.4915 23.5,67.5C 24.3256,68.451 24.4922,69.451 24,70.5C 22.1554,69.9505 20.6554,68.9505 19.5,67.5C 17.9547,66.5481 16.288,66.2148 14.5,66.5C 14.33,67.8221 14.6634,68.9887 15.5,70C 12.1784,72.3345 11.1784,71.6679 12.5,68C 11.5765,66.1886 10.7431,66.3553 10,68.5C 9.71673,65.2577 8.8834,64.9244 7.5,67.5C 7.70931,68.086 8.04265,68.586 8.5,69C 5.51838,69.498 2.51838,69.6646 -0.5,69.5C -0.5,54.1667 -0.5,38.8333 -0.5,23.5 Z"/></g>
<g><path style="opacity:1" fill="#093278" d="M 299.5,31.5 C 299.5,38.1667 299.5,44.8333 299.5,51.5C 298.733,52.172 298.066,53.0053 297.5,54C 294.461,54.3534 291.795,55.5201 289.5,57.5C 288.328,57.0814 287.328,56.4147 286.5,55.5C 284.5,58.1667 282.5,58.1667 280.5,55.5C 279.406,56.868 279.74,58.0347 281.5,59C 281,59.5 280.5,60 280,60.5C 278.13,59.2565 275.964,58.5899 273.5,58.5C 269.368,58.5771 265.368,59.2437 261.5,60.5C 261.5,61.5 261.5,62.5 261.5,63.5C 259.876,63.3601 258.71,64.0267 258,65.5C 257.667,65.1667 257.333,64.8333 257,64.5C 256.722,65.4158 256.222,66.0825 255.5,66.5C 255.179,64.9519 254.179,64.2852 252.5,64.5C 252.285,66.1788 252.952,67.1788 254.5,67.5C 254.157,69.2252 253.157,69.7252 251.5,69C 249.859,67.871 248.859,66.371 248.5,64.5C 247.048,62.1481 245.048,61.8148 242.5,63.5C 241.682,66.1071 241.182,68.7737 241,71.5C 239.878,69.5795 239.044,67.5795 238.5,65.5C 232.132,65.1703 225.798,65.5037 219.5,66.5C 215.932,69.0208 212.099,69.6875 208,68.5C 207.185,65.8018 207.685,63.4685 209.5,61.5C 210.534,60.3129 211.867,59.4796 213.5,59C 211.888,58.2797 210.388,58.4464 209,59.5C 209.195,57.8739 209.195,56.2072 209,54.5C 208.275,56.158 207.108,56.658 205.5,56C 207.056,55.2798 208.056,54.1132 208.5,52.5C 209.011,50.8053 209.678,49.1386 210.5,47.5C 211.598,51.3605 212.431,51.3605 213,47.5C 213.309,48.7659 213.809,49.9326 214.5,51C 220.157,51.4994 225.824,51.6661 231.5,51.5C 231.682,46.2063 232.182,46.2063 233,51.5C 233.333,50.8333 233.667,50.1667 234,49.5C 235.395,50.8146 236.395,50.4812 237,48.5C 237.308,49.3081 237.808,49.9747 238.5,50.5C 239.506,50.0623 239.506,49.3957 238.5,48.5C 240.006,47.2528 241.506,47.2528 243,48.5C 243.689,47.6433 244.522,46.9767 245.5,46.5C 248.758,47.4173 252.091,47.7507 255.5,47.5C 256.368,44.0645 256.368,40.7312 255.5,37.5C 259.852,35.5144 262.519,36.8477 263.5,41.5C 266.788,41.073 269.788,41.7397 272.5,43.5C 274.206,41.2951 275.706,38.9617 277,36.5C 279.48,34.259 282.147,32.259 285,30.5C 286.261,30.7591 287.261,31.4258 288,32.5C 291.73,31.5399 295.563,31.2065 299.5,31.5 Z"/></g>
<g><path style="opacity:1" fill="#aedfff" d="M 57.5,61.5 C 59.337,61.6395 59.6704,62.3061 58.5,63.5C 57.7025,63.0431 57.3691,62.3764 57.5,61.5 Z"/></g>
<g><path style="opacity:1" fill="#093785" d="M 299.5,51.5 C 299.5,61.5 299.5,71.5 299.5,81.5C 292.656,81.606 285.989,80.9394 279.5,79.5C 276.833,79.6667 274.167,79.8333 271.5,80C 271,80.5 270.5,81 270,81.5C 268.644,80.6198 267.144,80.2865 265.5,80.5C 265.649,81.552 265.483,82.552 265,83.5C 264.581,82.3279 263.915,81.3279 263,80.5C 262.15,81.4239 261.15,81.4239 260,80.5C 259.05,81.0223 258.216,81.689 257.5,82.5C 256.667,81.5 255.833,80.5 255,79.5C 252.26,80.2822 249.426,80.7822 246.5,81C 245.333,81.5 244.5,82.3333 244,83.5C 243.282,82.5494 242.449,82.3828 241.5,83C 239.792,84.0623 239.126,85.229 239.5,86.5C 236.265,85.2673 233.265,83.6006 230.5,81.5C 229.5,82.5 228.5,83.5 227.5,84.5C 228.603,84.9976 229.603,85.3309 230.5,85.5C 229.112,88.0789 227.612,88.0789 226,85.5C 223.504,87.6401 221.17,87.6401 219,85.5C 217.739,85.7591 216.739,86.4258 216,87.5C 215.722,86.5842 215.222,85.9175 214.5,85.5C 217.315,83.8379 220.315,83.3379 223.5,84C 222.359,83.2588 222.359,82.4255 223.5,81.5C 221.993,80.2612 220.826,80.5946 220,82.5C 219.667,81.5 219.333,80.5 219,79.5C 218.712,83.1741 217.212,84.0075 214.5,82C 215.5,81.6667 216.5,81.3333 217.5,81C 214.942,79.6201 214.942,78.1201 217.5,76.5C 219.396,75.5344 221.396,75.2011 223.5,75.5C 223.5,76.5 223.5,77.5 223.5,78.5C 227.24,78.2408 230.906,78.5741 234.5,79.5C 237.982,78.9653 239.649,76.9653 239.5,73.5C 240.873,73.6567 242.207,73.49 243.5,73C 244.406,70.5529 245.239,68.0529 246,65.5C 246.333,65.8333 246.667,66.1667 247,66.5C 247.278,65.5842 247.778,64.9175 248.5,64.5C 248.859,66.371 249.859,67.871 251.5,69C 253.157,69.7252 254.157,69.2252 254.5,67.5C 255.167,67.5 255.5,67.1667 255.5,66.5C 256.222,66.0825 256.722,65.4158 257,64.5C 257.333,64.8333 257.667,65.1667 258,65.5C 258.71,64.0267 259.876,63.3601 261.5,63.5C 261.5,62.5 261.5,61.5 261.5,60.5C 265.368,59.2437 269.368,58.5771 273.5,58.5C 275.964,58.5899 278.13,59.2565 280,60.5C 280.5,60 281,59.5 281.5,59C 279.74,58.0347 279.406,56.868 280.5,55.5C 282.5,58.1667 284.5,58.1667 286.5,55.5C 287.328,56.4147 288.328,57.0814 289.5,57.5C 291.795,55.5201 294.461,54.3534 297.5,54C 298.066,53.0053 298.733,52.172 299.5,51.5 Z"/></g>
<g><path style="opacity:1" fill="#acd1f6" d="M 255.5,66.5 C 255.5,67.1667 255.167,67.5 254.5,67.5C 252.952,67.1788 252.285,66.1788 252.5,64.5C 254.179,64.2852 255.179,64.9519 255.5,66.5 Z"/></g>
<g><path style="opacity:1" fill="#0f45a2" d="M 47.5,79.5 C 47.281,80.675 47.6143,81.675 48.5,82.5C 50.4086,83.3482 52.4086,83.6816 54.5,83.5C 54.3398,85.1992 54.5065,86.8659 55,88.5C 56.8402,87.1669 57.3402,87.3335 56.5,89C 57.0442,89.7172 57.7109,90.2172 58.5,90.5C 57.0312,95.5004 56.1978,95.5004 56,90.5C 55.0754,91.0465 54.2421,91.7132 53.5,92.5C 54.2458,93.7362 54.5792,95.0695 54.5,96.5C 49.6623,97.3317 46.829,95.3317 46,90.5C 43.1515,93.013 40.3182,93.013 37.5,90.5C 36.914,90.7093 36.414,91.0426 36,91.5C 35.6905,90.2341 35.1905,89.0674 34.5,88C 28.5837,87.1928 22.7504,87.3594 17,88.5C 15.2151,87.7599 13.3817,87.0933 11.5,86.5C 7.81931,88.7535 3.81931,89.7535 -0.5,89.5C -0.5,82.8333 -0.5,76.1667 -0.5,69.5C 2.51838,69.6646 5.51838,69.498 8.5,69C 8.04265,68.586 7.70931,68.086 7.5,67.5C 8.8834,64.9244 9.71673,65.2577 10,68.5C 10.7431,66.3553 11.5765,66.1886 12.5,68C 11.1784,71.6679 12.1784,72.3345 15.5,70C 14.6634,68.9887 14.33,67.8221 14.5,66.5C 16.288,66.2148 17.9547,66.5481 19.5,67.5C 20.6554,68.9505 22.1554,69.9505 24,70.5C 24.4922,69.451 24.3256,68.451 23.5,67.5C 25.4414,63.4915 26.1081,63.4915 25.5,67.5C 25.8457,68.6956 26.3457,68.6956 27,67.5C 27.3333,68.8333 27.6667,70.1667 28,71.5C 28.8923,67.8268 30.3923,67.6601 32.5,71C 37.2391,71.8538 41.9058,73.0205 46.5,74.5C 47.3094,76.0709 47.6427,77.7376 47.5,79.5 Z"/></g>
<g><path style="opacity:1" fill="#0a3884" d="M 201.5,75.5 C 201.5,74.8333 201.5,74.1667 201.5,73.5C 202.444,70.1944 203.444,66.861 204.5,63.5C 205.785,61.3411 207.452,60.6745 209.5,61.5C 207.685,63.4685 207.185,65.8018 208,68.5C 212.099,69.6875 215.932,69.0208 219.5,66.5C 225.798,65.5037 232.132,65.1703 238.5,65.5C 239.044,67.5795 239.878,69.5795 241,71.5C 241.182,68.7737 241.682,66.1071 242.5,63.5C 245.048,61.8148 247.048,62.1481 248.5,64.5C 247.778,64.9175 247.278,65.5842 247,66.5C 246.667,66.1667 246.333,65.8333 246,65.5C 245.239,68.0529 244.406,70.5529 243.5,73C 242.207,73.49 240.873,73.6567 239.5,73.5C 239.649,76.9653 237.982,78.9653 234.5,79.5C 230.906,78.5741 227.24,78.2408 223.5,78.5C 223.5,77.5 223.5,76.5 223.5,75.5C 221.396,75.2011 219.396,75.5344 217.5,76.5C 214.942,78.1201 214.942,79.6201 217.5,81C 216.5,81.3333 215.5,81.6667 214.5,82C 217.212,84.0075 218.712,83.1741 219,79.5C 219.333,80.5 219.667,81.5 220,82.5C 220.826,80.5946 221.993,80.2612 223.5,81.5C 222.359,82.4255 222.359,83.2588 223.5,84C 220.315,83.3379 217.315,83.8379 214.5,85.5C 214.167,85.5 213.833,85.5 213.5,85.5C 211.883,84.962 210.216,84.6287 208.5,84.5C 208.587,81.4017 208.087,81.0684 207,83.5C 206.405,82.1011 206.572,80.7678 207.5,79.5C 206.902,78.2054 206.402,76.8721 206,75.5C 205.682,77.0609 204.849,78.2276 203.5,79C 200.833,79.6667 198.167,79.6667 195.5,79C 193.854,77.4452 193.521,75.7785 194.5,74C 192.273,70.7786 190.273,70.7786 188.5,74C 190.576,75.2438 191.576,77.0771 191.5,79.5C 187.318,79.6697 183.318,79.6697 179.5,79.5C 178.407,81.7697 176.907,82.103 175,80.5C 173.189,81.4235 173.355,82.2569 175.5,83C 174.216,83.6838 173.049,83.5171 172,82.5C 169.968,86.1095 166.801,88.1095 162.5,88.5C 160.307,88.6738 158.473,88.0071 157,86.5C 156.439,87.0219 155.772,87.3552 155,87.5C 151.621,85.3606 148.121,85.3606 144.5,87.5C 143.522,87.0233 142.689,86.3567 142,85.5C 139.959,86.7522 137.625,87.4188 135,87.5C 129.568,88.9104 126.734,86.9104 126.5,81.5C 120.831,81.3568 115.331,81.3568 110,81.5C 108.667,80.8333 107.333,80.1667 106,79.5C 104.374,80.2887 102.874,81.2887 101.5,82.5C 100.373,80.7305 100.873,79.3972 103,78.5C 104.353,72.7585 103.353,71.7585 100,75.5C 99.6667,74.5 99.3333,73.5 99,72.5C 98.3645,73.9663 97.5312,75.2997 96.5,76.5C 97.3966,76.6691 98.3966,77.0024 99.5,77.5C 98.7573,78.1818 98.0906,78.8485 97.5,79.5C 97.1667,79.5 96.8333,79.5 96.5,79.5C 95.4583,78.2089 94.2917,78.2089 93,79.5C 92.5078,78.451 92.6744,77.451 93.5,76.5C 89.4604,73.3779 86.1271,69.7112 83.5,65.5C 87.3705,66.799 91.3705,67.4657 95.5,67.5C 95.5,68.5 95.5,69.5 95.5,70.5C 97.5273,70.6621 99.5273,70.4955 101.5,70C 98.8875,68.9288 98.8875,68.0955 101.5,67.5C 103.175,69.002 105.008,70.3353 107,71.5C 106.667,70.1667 106.333,68.8333 106,67.5C 106.671,68.2524 107.504,68.5858 108.5,68.5C 109.337,70.8587 110.837,72.8587 113,74.5C 113.333,74.1667 113.667,73.8333 114,73.5C 116.801,76.2608 118.634,75.5941 119.5,71.5C 120.192,72.0253 120.692,72.6919 121,73.5C 121.671,72.7476 122.504,72.4142 123.5,72.5C 124.167,72.5 124.833,72.5 125.5,72.5C 135.74,71.1007 145.906,71.434 156,73.5C 157.757,72.8811 158.924,71.7144 159.5,70C 158.729,67.7334 157.396,65.9 155.5,64.5C 160.033,64.0483 164.7,63.5483 169.5,63C 167.185,61.6325 167.185,60.7991 169.5,60.5C 172.275,62.0917 175.275,63.0917 178.5,63.5C 178.828,66.0044 180.162,67.8378 182.5,69C 185.167,69.6667 187.833,69.6667 190.5,69C 191.337,67.9887 191.67,66.8221 191.5,65.5C 192.873,65.3433 194.207,65.51 195.5,66C 195.167,66.3333 194.833,66.6667 194.5,67C 195.795,70.1072 196.795,73.2739 197.5,76.5C 199.099,76.7678 200.432,76.4345 201.5,75.5 Z"/></g>
<g><path style="opacity:1" fill="#7aa5e0" d="M 125.5,72.5 C 124.833,72.5 124.167,72.5 123.5,72.5C 124.167,69.8333 124.833,69.8333 125.5,72.5 Z"/></g>
<g><path style="opacity:1" fill="#a8cff3" d="M 152.5,67.5 C 153.5,67.5 154.5,67.5 155.5,67.5C 155.5,68.5 155.5,69.5 155.5,70.5C 154.5,70.5 153.5,70.5 152.5,70.5C 152.5,69.5 152.5,68.5 152.5,67.5 Z"/></g>
<g><path style="opacity:1" fill="#85b1ec" d="M 209.5,66.5 C 211.337,66.6395 211.67,67.3061 210.5,68.5C 209.702,68.0431 209.369,67.3764 209.5,66.5 Z"/></g>
<g><path style="opacity:1" fill="#a4cdff" d="M 148.5,66.5 C 150.337,66.6395 150.67,67.3061 149.5,68.5C 148.702,68.0431 148.369,67.3764 148.5,66.5 Z"/></g>
<g><path style="opacity:1" fill="#bae8ff" d="M 187.5,63.5 C 189.337,63.6395 189.67,64.3061 188.5,65.5C 187.702,65.0431 187.369,64.3764 187.5,63.5 Z"/></g>
<g><path style="opacity:1" fill="#94c0f7" d="M 201.5,73.5 C 201.5,74.1667 201.5,74.8333 201.5,75.5C 198.833,74.8333 198.833,74.1667 201.5,73.5 Z"/></g>
<g><path style="opacity:1" fill="#0c3f95" d="M 299.5,81.5 C 299.5,94.1667 299.5,106.833 299.5,119.5C 293.453,117.24 287.12,115.74 280.5,115C 279.62,113.644 279.286,112.144 279.5,110.5C 275.233,110.543 271.233,110.877 267.5,111.5C 265.697,110.863 264.364,109.697 263.5,108C 263.527,106.474 264.027,104.974 265,103.5C 263.491,104.09 261.991,104.756 260.5,105.5C 261.833,106.62 262.333,107.953 262,109.5C 260.829,108.107 259.329,107.273 257.5,107C 259.878,106.026 259.544,105.359 256.5,105C 254.606,103.899 253.939,102.566 254.5,101C 253.552,100.517 252.552,100.351 251.5,100.5C 250.498,98.9891 249.831,97.3224 249.5,95.5C 248.5,95.5 247.5,95.5 246.5,95.5C 247.449,97.7373 248.116,100.071 248.5,102.5C 247.778,102.918 247.278,103.584 247,104.5C 244.691,103.025 242.524,101.358 240.5,99.5C 239.585,100.328 238.919,101.328 238.5,102.5C 237.333,102.833 236.167,103.167 235,103.5C 230.102,102.119 225.269,100.786 220.5,99.5C 217.075,99.9693 216.742,101.469 219.5,104C 218.565,106.381 218.232,108.881 218.5,111.5C 216.167,111.5 213.833,111.5 211.5,111.5C 210.5,110.5 209.5,109.5 208.5,108.5C 208.92,106.906 209.586,105.406 210.5,104C 208.001,102.047 207.334,99.7135 208.5,97C 202.804,96.1701 197.137,96.3368 191.5,97.5C 191.291,98.086 190.957,98.586 190.5,99C 185.511,99.4993 180.511,99.6659 175.5,99.5C 176.09,98.234 176.59,96.9007 177,95.5C 181.333,95.8333 185.667,96.1667 190,96.5C 191.074,95.3816 192.24,94.3816 193.5,93.5C 192.833,93.1667 192.167,92.8333 191.5,92.5C 192.167,91.5 192.833,90.5 193.5,89.5C 192.05,88.1502 191.383,86.4835 191.5,84.5C 194.187,84.3359 196.854,84.5026 199.5,85C 200.126,85.7504 200.626,86.5838 201,87.5C 202.401,85.8078 204.234,85.1412 206.5,85.5C 206.351,86.552 206.517,87.552 207,88.5C 209.287,87.4558 211.453,86.4558 213.5,85.5C 213.833,85.5 214.167,85.5 214.5,85.5C 215.222,85.9175 215.722,86.5842 216,87.5C 216.739,86.4258 217.739,85.7591 219,85.5C 221.17,87.6401 223.504,87.6401 226,85.5C 227.612,88.0789 229.112,88.0789 230.5,85.5C 229.603,85.3309 228.603,84.9976 227.5,84.5C 228.5,83.5 229.5,82.5 230.5,81.5C 233.265,83.6006 236.265,85.2673 239.5,86.5C 239.126,85.229 239.792,84.0623 241.5,83C 242.449,82.3828 243.282,82.5494 244,83.5C 244.5,82.3333 245.333,81.5 246.5,81C 249.426,80.7822 252.26,80.2822 255,79.5C 255.833,80.5 256.667,81.5 257.5,82.5C 258.216,81.689 259.05,81.0223 260,80.5C 261.15,81.4239 262.15,81.4239 263,80.5C 263.915,81.3279 264.581,82.3279 265,83.5C 265.483,82.552 265.649,81.552 265.5,80.5C 267.144,80.2865 268.644,80.6198 270,81.5C 270.5,81 271,80.5 271.5,80C 274.167,79.8333 276.833,79.6667 279.5,79.5C 285.989,80.9394 292.656,81.606 299.5,81.5 Z"/></g>
<g><path style="opacity:1" fill="#0a3c8f" d="M 213.5,85.5 C 211.453,86.4558 209.287,87.4558 207,88.5C 206.517,87.552 206.351,86.552 206.5,85.5C 204.234,85.1412 202.401,85.8078 201,87.5C 200.626,86.5838 200.126,85.7504 199.5,85C 196.854,84.5026 194.187,84.3359 191.5,84.5C 191.383,86.4835 192.05,88.1502 193.5,89.5C 192.833,90.5 192.167,91.5 191.5,92.5C 192.167,92.8333 192.833,93.1667 193.5,93.5C 192.24,94.3816 191.074,95.3816 190,96.5C 185.667,96.1667 181.333,95.8333 177,95.5C 176.59,96.9007 176.09,98.234 175.5,99.5C 174.993,100.859 173.993,101.859 172.5,102.5C 173.59,103.609 173.59,104.609 172.5,105.5C 171.859,103.704 170.859,102.204 169.5,101C 171.104,99.7635 172.771,98.5968 174.5,97.5C 174,97.1667 173.5,96.8333 173,96.5C 170.909,97.2563 169.076,98.423 167.5,100C 156.619,100.691 145.786,100.191 135,98.5C 129.946,98.0605 125.279,99.0605 121,101.5C 119.774,101.355 118.607,101.022 117.5,100.5C 116.862,98.0299 115.362,96.3633 113,95.5C 108.705,97.2986 104.205,97.9652 99.5,97.5C 99.3253,95.3792 99.6586,93.3792 100.5,91.5C 102.048,91.1788 102.715,90.1788 102.5,88.5C 101.5,88.5 100.5,88.5 99.5,88.5C 99.5,89.5 99.5,90.5 99.5,91.5C 98.1634,90.6851 97.1634,89.5185 96.5,88C 99.9261,85.4047 100.259,82.5714 97.5,79.5C 98.0906,78.8485 98.7573,78.1818 99.5,77.5C 98.3966,77.0024 97.3966,76.6691 96.5,76.5C 97.5312,75.2997 98.3645,73.9663 99,72.5C 99.3333,73.5 99.6667,74.5 100,75.5C 103.353,71.7585 104.353,72.7585 103,78.5C 100.873,79.3972 100.373,80.7305 101.5,82.5C 102.874,81.2887 104.374,80.2887 106,79.5C 107.333,80.1667 108.667,80.8333 110,81.5C 115.331,81.3568 120.831,81.3568 126.5,81.5C 126.734,86.9104 129.568,88.9104 135,87.5C 137.625,87.4188 139.959,86.7522 142,85.5C 142.689,86.3567 143.522,87.0233 144.5,87.5C 148.121,85.3606 151.621,85.3606 155,87.5C 155.772,87.3552 156.439,87.0219 157,86.5C 158.473,88.0071 160.307,88.6738 162.5,88.5C 166.801,88.1095 169.968,86.1095 172,82.5C 173.049,83.5171 174.216,83.6838 175.5,83C 173.355,82.2569 173.189,81.4235 175,80.5C 176.907,82.103 178.407,81.7697 179.5,79.5C 183.318,79.6697 187.318,79.6697 191.5,79.5C 191.576,77.0771 190.576,75.2438 188.5,74C 190.273,70.7786 192.273,70.7786 194.5,74C 193.521,75.7785 193.854,77.4452 195.5,79C 198.167,79.6667 200.833,79.6667 203.5,79C 204.849,78.2276 205.682,77.0609 206,75.5C 206.402,76.8721 206.902,78.2054 207.5,79.5C 206.572,80.7678 206.405,82.1011 207,83.5C 208.087,81.0684 208.587,81.4017 208.5,84.5C 210.216,84.6287 211.883,84.962 213.5,85.5 Z"/></g>
<g><path style="opacity:1" fill="#b5e1fb" d="M 100.5,91.5 C 100.167,91.5 99.8333,91.5 99.5,91.5C 99.5,90.5 99.5,89.5 99.5,88.5C 100.5,88.5 101.5,88.5 102.5,88.5C 102.715,90.1788 102.048,91.1788 100.5,91.5 Z"/></g>
<g><path style="opacity:1" fill="#325a9e" d="M 159.5,78.5 C 160.833,78.5 162.167,78.5 163.5,78.5C 163.281,79.675 163.614,80.675 164.5,81.5C 165.931,81.9766 167.264,82.6433 168.5,83.5C 165.529,84.6754 162.696,84.3421 160,82.5C 159.667,82.8333 159.333,83.1667 159,83.5C 158.616,81.8034 158.782,80.1368 159.5,78.5 Z"/></g>
<g><path style="opacity:1" fill="#b8e3ff" d="M 267.5,88.5 C 269.337,88.6395 269.67,89.3061 268.5,90.5C 267.702,90.0431 267.369,89.3764 267.5,88.5 Z"/></g>
<g><path style="opacity:1" fill="#0c47ab" d="M 58.5,90.5 C 60.1207,90.7869 61.1207,91.7869 61.5,93.5C 62.6888,94.4287 64.0222,94.762 65.5,94.5C 65.5,92.5 65.5,90.5 65.5,88.5C 68.4552,87.8413 71.4552,87.5079 74.5,87.5C 74.3359,90.1873 74.5026,92.854 75,95.5C 76.7337,96.2489 78.567,96.7489 80.5,97C 79.6634,98.0113 79.33,99.1779 79.5,100.5C 80.9305,100.579 82.2638,100.246 83.5,99.5C 84.2298,100.934 85.2298,102.1 86.5,103C 85.3333,105.833 86.1667,106.667 89,105.5C 89.7724,106.849 90.9391,107.682 92.5,108C 92.1667,108.333 91.8333,108.667 91.5,109C 92.7441,109.456 93.5774,108.956 94,107.5C 94.2784,108.416 94.7784,109.082 95.5,109.5C 95.5,112.167 95.5,114.833 95.5,117.5C 95.5394,118.583 95.8728,119.583 96.5,120.5C 97.6034,120.998 98.6034,121.331 99.5,121.5C 98.2713,122.281 96.938,122.781 95.5,123C 97.3795,123.96 99.3795,124.46 101.5,124.5C 99.5767,125.308 97.5767,125.808 95.5,126C 96.056,126.383 96.3893,126.883 96.5,127.5C 95.8333,127.5 95.1667,127.5 94.5,127.5C 89.5379,120.398 83.2046,117.731 75.5,119.5C 75.5,118.5 75.5,117.5 75.5,116.5C 76.9778,116.762 78.3112,116.429 79.5,115.5C 78.9747,114.808 78.3081,114.308 77.5,114C 79.1066,112.951 79.7733,111.451 79.5,109.5C 75.476,109.497 71.476,109.164 67.5,108.5C 65.3807,108.402 63.714,107.569 62.5,106C 57.5111,105.501 52.5111,105.334 47.5,105.5C 47.3505,104.448 47.5172,103.448 48,102.5C 48.6543,103.696 49.1543,103.696 49.5,102.5C 49,101.5 48.5,100.5 48,99.5C 39.919,100.482 31.7524,100.816 23.5,100.5C 23.6641,97.8127 23.4974,95.146 23,92.5C 22.6667,93.5 22.3333,94.5 22,95.5C 21.2747,93.842 20.108,93.342 18.5,94C 20.2268,96.9036 20.8935,100.07 20.5,103.5C 21.5,103.5 22.5,103.5 23.5,103.5C 23.5,104.833 23.5,106.167 23.5,107.5C 17.9738,107.179 12.6405,107.512 7.5,108.5C 4.83333,108.5 2.16667,108.5 -0.5,108.5C -0.5,102.167 -0.5,95.8333 -0.5,89.5C 3.81931,89.7535 7.81931,88.7535 11.5,86.5C 13.3817,87.0933 15.2151,87.7599 17,88.5C 22.7504,87.3594 28.5837,87.1928 34.5,88C 35.1905,89.0674 35.6905,90.2341 36,91.5C 36.414,91.0426 36.914,90.7093 37.5,90.5C 40.3182,93.013 43.1515,93.013 46,90.5C 46.829,95.3317 49.6623,97.3317 54.5,96.5C 54.5792,95.0695 54.2458,93.7362 53.5,92.5C 54.2421,91.7132 55.0754,91.0465 56,90.5C 56.1978,95.5004 57.0312,95.5004 58.5,90.5 Z"/></g>
<g><path style="opacity:1" fill="#0c429b" d="M 96.5,79.5 C 96.8333,79.5 97.1667,79.5 97.5,79.5C 100.259,82.5714 99.9261,85.4047 96.5,88C 97.1634,89.5185 98.1634,90.6851 99.5,91.5C 99.8333,91.5 100.167,91.5 100.5,91.5C 99.6586,93.3792 99.3253,95.3792 99.5,97.5C 104.205,97.9652 108.705,97.2986 113,95.5C 115.362,96.3633 116.862,98.0299 117.5,100.5C 118.607,101.022 119.774,101.355 121,101.5C 125.279,99.0605 129.946,98.0605 135,98.5C 145.786,100.191 156.619,100.691 167.5,100C 169.076,98.423 170.909,97.2563 173,96.5C 173.5,96.8333 174,97.1667 174.5,97.5C 172.771,98.5968 171.104,99.7635 169.5,101C 170.859,102.204 171.859,103.704 172.5,105.5C 173.59,104.609 173.59,103.609 172.5,102.5C 173.993,101.859 174.993,100.859 175.5,99.5C 180.511,99.6659 185.511,99.4993 190.5,99C 190.957,98.586 191.291,98.086 191.5,97.5C 197.137,96.3368 202.804,96.1701 208.5,97C 207.334,99.7135 208.001,102.047 210.5,104C 209.586,105.406 208.92,106.906 208.5,108.5C 206.321,109.103 204.154,109.77 202,110.5C 198.927,109.383 195.76,109.216 192.5,110C 191.139,111.584 190.472,113.418 190.5,115.5C 185.821,115.334 181.155,115.501 176.5,116C 175.663,117.011 175.33,118.178 175.5,119.5C 172.15,119.335 168.817,119.502 165.5,120C 164.318,121.678 163.152,121.512 162,119.5C 159.419,122.868 155.919,124.201 151.5,123.5C 151.5,122.167 151.5,120.833 151.5,119.5C 145.824,119.334 140.157,119.501 134.5,120C 133.672,120.915 132.672,121.581 131.5,122C 133.595,122.556 133.762,123.056 132,123.5C 131.055,123.095 130.388,122.428 130,121.5C 128.951,123.107 127.451,123.773 125.5,123.5C 125.086,117.084 121.752,113.084 115.5,111.5C 115.526,107.633 114.359,106.966 112,109.5C 108.943,109.316 105.943,109.316 103,109.5C 100.521,106.982 98.0212,106.982 95.5,109.5C 94.7784,109.082 94.2784,108.416 94,107.5C 93.5774,108.956 92.7441,109.456 91.5,109C 91.8333,108.667 92.1667,108.333 92.5,108C 90.9391,107.682 89.7724,106.849 89,105.5C 86.1667,106.667 85.3333,105.833 86.5,103C 85.2298,102.1 84.2298,100.934 83.5,99.5C 82.2638,100.246 80.9305,100.579 79.5,100.5C 79.33,99.1779 79.6634,98.0113 80.5,97C 78.567,96.7489 76.7337,96.2489 75,95.5C 74.5026,92.854 74.3359,90.1873 74.5,87.5C 71.4552,87.5079 68.4552,87.8413 65.5,88.5C 65.5,90.5 65.5,92.5 65.5,94.5C 64.0222,94.762 62.6888,94.4287 61.5,93.5C 61.1207,91.7869 60.1207,90.7869 58.5,90.5C 57.7109,90.2172 57.0442,89.7172 56.5,89C 57.3402,87.3335 56.8402,87.1669 55,88.5C 54.5065,86.8659 54.3398,85.1992 54.5,83.5C 52.4086,83.6816 50.4086,83.3482 48.5,82.5C 47.6143,81.675 47.281,80.675 47.5,79.5C 50.1194,80.8028 52.4528,80.3028 54.5,78C 55.6341,76.984 55.3008,76.3173 53.5,76C 56.1667,75.3333 56.1667,74.6667 53.5,74C 56.4262,73.7822 59.2595,73.2822 62,72.5C 62.8333,73.3333 63.6667,74.1667 64.5,75C 69.1667,75.3333 73.8333,75.6667 78.5,76C 79.1905,77.0674 79.6905,78.2341 80,79.5C 80.3879,78.572 81.0546,77.9054 82,77.5C 84.4778,79.4603 86.3111,81.7937 87.5,84.5C 92.1713,85.3507 95.1713,83.684 96.5,79.5 Z"/></g>
<g><path style="opacity:1" fill="#a2d9ff" d="M 77.5,91.5 C 79.337,91.6395 79.6704,92.3061 78.5,93.5C 77.7025,93.0431 77.3691,92.3764 77.5,91.5 Z"/></g>
<g><path style="opacity:1" fill="#547ac6" d="M 251.5,100.5 C 250.71,101.401 249.71,102.068 248.5,102.5C 248.116,100.071 247.449,97.7373 246.5,95.5C 247.5,95.5 248.5,95.5 249.5,95.5C 249.831,97.3224 250.498,98.9891 251.5,100.5 Z"/></g>
<g><path style="opacity:1" fill="#0e45a3" d="M 248.5,102.5 C 249.71,102.068 250.71,101.401 251.5,100.5C 252.552,100.351 253.552,100.517 254.5,101C 253.939,102.566 254.606,103.899 256.5,105C 259.544,105.359 259.878,106.026 257.5,107C 259.329,107.273 260.829,108.107 262,109.5C 262.333,107.953 261.833,106.62 260.5,105.5C 261.991,104.756 263.491,104.09 265,103.5C 264.027,104.974 263.527,106.474 263.5,108C 264.364,109.697 265.697,110.863 267.5,111.5C 271.233,110.877 275.233,110.543 279.5,110.5C 279.286,112.144 279.62,113.644 280.5,115C 287.12,115.74 293.453,117.24 299.5,119.5C 299.5,130.167 299.5,140.833 299.5,151.5C 298.167,151.5 296.833,151.5 295.5,151.5C 295.5,149.167 295.5,146.833 295.5,144.5C 292.813,144.664 290.146,144.497 287.5,144C 286.978,143.439 286.645,142.772 286.5,142C 287.068,138.158 287.735,134.325 288.5,130.5C 289.646,129.855 290.646,129.022 291.5,128C 286.845,127.501 282.179,127.334 277.5,127.5C 277.773,125.549 277.107,124.049 275.5,123C 269.205,123.484 262.871,123.484 256.5,123C 255.833,122 255.167,121 254.5,120C 249.697,119.14 245.03,118.807 240.5,119C 239.949,117.602 239.616,116.268 239.5,115C 232.086,114.11 224.753,114.443 217.5,116C 216.919,116.893 216.585,117.893 216.5,119C 217.378,120.8 218.045,122.633 218.5,124.5C 220.484,124.383 222.15,125.05 223.5,126.5C 221.389,127.605 220.055,129.271 219.5,131.5C 216.391,131.736 213.391,131.403 210.5,130.5C 210.511,128.983 211.177,127.816 212.5,127C 212.167,126.667 211.833,126.333 211.5,126C 213.5,125.667 215.5,125.333 217.5,125C 215.28,123.204 212.946,123.037 210.5,124.5C 208.291,123.083 205.957,121.916 203.5,121C 204.448,120.517 205.448,120.351 206.5,120.5C 206.39,117.941 207.056,115.608 208.5,113.5C 210.853,114.565 213.186,114.398 215.5,113C 213.942,112.79 212.609,112.29 211.5,111.5C 213.833,111.5 216.167,111.5 218.5,111.5C 218.232,108.881 218.565,106.381 219.5,104C 216.742,101.469 217.075,99.9693 220.5,99.5C 225.269,100.786 230.102,102.119 235,103.5C 236.167,103.167 237.333,102.833 238.5,102.5C 238.919,101.328 239.585,100.328 240.5,99.5C 242.524,101.358 244.691,103.025 247,104.5C 247.278,103.584 247.778,102.918 248.5,102.5 Z"/></g>
<g><path style="opacity:1" fill="#0f4eb8" d="M -0.5,108.5 C 2.16667,108.5 4.83333,108.5 7.5,108.5C 7.5,109.5 7.5,110.5 7.5,111.5C 12.4373,110.603 16.4373,112.103 19.5,116C 17,116.833 16.8333,118 19,119.5C 20.5044,117.548 22.3377,116.382 24.5,116C 24.1667,116.333 23.8333,116.667 23.5,117C 25.0609,117.318 26.2276,118.151 27,119.5C 27.7412,118.359 28.5745,118.359 29.5,119.5C 31.7503,122.103 33.2503,124.77 34,127.5C 38.087,123.437 40.2537,118.437 40.5,112.5C 45.4351,111.552 50.4351,111.219 55.5,111.5C 55.5,114.167 55.5,116.833 55.5,119.5C 59.449,119.693 59.449,120.193 55.5,121C 56.1258,121.75 56.6258,122.584 57,123.5C 57.6891,122.643 58.5224,121.977 59.5,121.5C 61.5688,125.047 63.4021,128.047 65,130.5C 65.4828,129.552 65.6495,128.552 65.5,127.5C 68.368,127.085 70.5347,128.085 72,130.5C 72.3333,130.167 72.6667,129.833 73,129.5C 73.8996,130.77 75.0663,131.77 76.5,132.5C 76.3764,133.107 76.0431,133.44 75.5,133.5C 74.8826,133.389 74.3826,133.056 74,132.5C 70.2981,136.727 67.1314,136.393 64.5,131.5C 63.5344,133.396 63.2011,135.396 63.5,137.5C 62.0695,137.421 60.7362,137.754 59.5,138.5C 58.7492,137.624 58.2492,136.624 58,135.5C 54.8506,137.362 51.3506,138.029 47.5,137.5C 47.5,139.167 47.5,140.833 47.5,142.5C 44.6786,142.539 42.0119,143.205 39.5,144.5C 40.6012,146.102 42.1012,147.102 44,147.5C 46.8693,146.433 49.7027,146.433 52.5,147.5C 53.7059,149.516 53.7059,151.516 52.5,153.5C 51.1667,154.833 49.8333,156.167 48.5,157.5C 46.694,156.141 45.194,156.475 44,158.5C 43.6924,157.692 43.1924,157.025 42.5,156.5C 41.7568,157.908 40.9234,159.241 40,160.5C 37.9592,159.577 35.7925,159.244 33.5,159.5C 32.8333,156.833 32.1667,156.833 31.5,159.5C 31.5,162.167 31.5,164.833 31.5,167.5C 20.8333,167.5 10.1667,167.5 -0.5,167.5C -0.5,147.833 -0.5,128.167 -0.5,108.5 Z"/></g>
<g><path style="opacity:1" fill="#0e4cb3" d="M 94.5,127.5 C 89.648,128.523 85.4813,128.523 82,127.5C 80.1511,130.54 78.9844,133.874 78.5,137.5C 77.2888,136.726 77.2888,135.893 78.5,135C 77.2625,134.768 76.2625,134.268 75.5,133.5C 76.0431,133.44 76.3764,133.107 76.5,132.5C 75.0663,131.77 73.8996,130.77 73,129.5C 72.6667,129.833 72.3333,130.167 72,130.5C 70.5347,128.085 68.368,127.085 65.5,127.5C 65.6495,128.552 65.4828,129.552 65,130.5C 63.4021,128.047 61.5688,125.047 59.5,121.5C 58.5224,121.977 57.6891,122.643 57,123.5C 56.6258,122.584 56.1258,121.75 55.5,121C 59.449,120.193 59.449,119.693 55.5,119.5C 55.5,116.833 55.5,114.167 55.5,111.5C 50.4351,111.219 45.4351,111.552 40.5,112.5C 40.2537,118.437 38.087,123.437 34,127.5C 33.2503,124.77 31.7503,122.103 29.5,119.5C 28.5745,118.359 27.7412,118.359 27,119.5C 26.2276,118.151 25.0609,117.318 23.5,117C 23.8333,116.667 24.1667,116.333 24.5,116C 22.3377,116.382 20.5044,117.548 19,119.5C 16.8333,118 17,116.833 19.5,116C 16.4373,112.103 12.4373,110.603 7.5,111.5C 7.5,110.5 7.5,109.5 7.5,108.5C 12.6405,107.512 17.9738,107.179 23.5,107.5C 23.5,106.167 23.5,104.833 23.5,103.5C 22.5,103.5 21.5,103.5 20.5,103.5C 20.8935,100.07 20.2268,96.9036 18.5,94C 20.108,93.342 21.2747,93.842 22,95.5C 22.3333,94.5 22.6667,93.5 23,92.5C 23.4974,95.146 23.6641,97.8127 23.5,100.5C 31.7524,100.816 39.919,100.482 48,99.5C 48.5,100.5 49,101.5 49.5,102.5C 49.1543,103.696 48.6543,103.696 48,102.5C 47.5172,103.448 47.3505,104.448 47.5,105.5C 52.5111,105.334 57.5111,105.501 62.5,106C 63.714,107.569 65.3807,108.402 67.5,108.5C 71.476,109.164 75.476,109.497 79.5,109.5C 79.7733,111.451 79.1066,112.951 77.5,114C 78.3081,114.308 78.9747,114.808 79.5,115.5C 78.3112,116.429 76.9778,116.762 75.5,116.5C 75.5,117.5 75.5,118.5 75.5,119.5C 83.2046,117.731 89.5379,120.398 94.5,127.5 Z"/></g>
<g><path style="opacity:1" fill="#0d47a9" d="M 208.5,108.5 C 209.5,109.5 210.5,110.5 211.5,111.5C 212.609,112.29 213.942,112.79 215.5,113C 213.186,114.398 210.853,114.565 208.5,113.5C 207.056,115.608 206.39,117.941 206.5,120.5C 205.448,120.351 204.448,120.517 203.5,121C 205.957,121.916 208.291,123.083 210.5,124.5C 212.946,123.037 215.28,123.204 217.5,125C 215.5,125.333 213.5,125.667 211.5,126C 211.833,126.333 212.167,126.667 212.5,127C 211.177,127.816 210.511,128.983 210.5,130.5C 208.894,129.22 207.894,129.72 207.5,132C 207.82,133.653 208.82,134.653 210.5,135C 214.381,136.452 218.048,136.286 221.5,134.5C 225.654,137.698 224.987,139.365 219.5,139.5C 219.5,141.167 219.5,142.833 219.5,144.5C 216.813,144.664 214.146,144.497 211.5,144C 210.663,142.989 210.33,141.822 210.5,140.5C 209.178,140.33 208.011,140.663 207,141.5C 204.894,139.709 202.394,139.042 199.5,139.5C 199.5,138.167 199.5,136.833 199.5,135.5C 198.448,135.649 197.448,135.483 196.5,135C 197.696,134.346 197.696,133.846 196.5,133.5C 194.5,136.167 192.5,136.167 190.5,133.5C 190.167,134.5 189.833,135.5 189.5,136.5C 190.182,138.841 190.849,141.174 191.5,143.5C 188.857,142.377 187.19,140.377 186.5,137.5C 187.725,136.848 188.392,135.681 188.5,134C 187.961,131.652 187.794,129.485 188,127.5C 185.237,130.288 182.903,129.955 181,126.5C 179.033,128.951 177.367,131.618 176,134.5C 175.308,133.975 174.808,133.308 174.5,132.5C 177.456,129.828 177.956,126.828 176,123.5C 175.585,125.291 174.585,126.624 173,127.5C 172.543,130.796 171.709,133.963 170.5,137C 168.5,137.667 166.5,137.667 164.5,137C 164.793,134.692 163.959,132.526 162,130.5C 160.168,133.677 158.834,138.01 158,143.5C 153.667,143.167 149.333,142.833 145,142.5C 142.197,144.302 140.031,146.635 138.5,149.5C 136.5,146.833 134.5,146.833 132.5,149.5C 130.217,146.54 127.884,143.54 125.5,140.5C 125.002,141.603 124.669,142.603 124.5,143.5C 123.702,141.922 123.202,140.256 123,138.5C 121.66,139.868 120.326,141.201 119,142.5C 118.5,142.167 118,141.833 117.5,141.5C 118.833,140.5 118.833,139.5 117.5,138.5C 117.977,137.522 118.643,136.689 119.5,136C 117.633,135.289 116.133,135.789 115,137.5C 114.333,136.833 113.667,136.167 113,135.5C 112.607,132.367 111.774,129.367 110.5,126.5C 106.687,125.126 107.02,124.293 111.5,124C 110.773,122.601 110.273,121.101 110,119.5C 109.586,119.957 109.086,120.291 108.5,120.5C 107.174,119.01 105.674,117.676 104,116.5C 103.405,117.899 103.572,119.232 104.5,120.5C 103.282,120.109 102.448,120.776 102,122.5C 101.506,120.866 101.34,119.199 101.5,117.5C 99.5,117.5 97.5,117.5 95.5,117.5C 95.5,114.833 95.5,112.167 95.5,109.5C 98.0212,106.982 100.521,106.982 103,109.5C 105.943,109.316 108.943,109.316 112,109.5C 114.359,106.966 115.526,107.633 115.5,111.5C 121.752,113.084 125.086,117.084 125.5,123.5C 127.451,123.773 128.951,123.107 130,121.5C 130.388,122.428 131.055,123.095 132,123.5C 133.762,123.056 133.595,122.556 131.5,122C 132.672,121.581 133.672,120.915 134.5,120C 140.157,119.501 145.824,119.334 151.5,119.5C 151.5,120.833 151.5,122.167 151.5,123.5C 155.919,124.201 159.419,122.868 162,119.5C 163.152,121.512 164.318,121.678 165.5,120C 168.817,119.502 172.15,119.335 175.5,119.5C 175.33,118.178 175.663,117.011 176.5,116C 181.155,115.501 185.821,115.334 190.5,115.5C 190.472,113.418 191.139,111.584 192.5,110C 195.76,109.216 198.927,109.383 202,110.5C 204.154,109.77 206.321,109.103 208.5,108.5 Z"/></g>
<g><path style="opacity:1" fill="#83b9f5" d="M 118.5,108.5 C 120.337,108.639 120.67,109.306 119.5,110.5C 118.702,110.043 118.369,109.376 118.5,108.5 Z"/></g>
<g><path style="opacity:1" fill="#0e4eb9" d="M 94.5,127.5 C 95.1667,127.5 95.8333,127.5 96.5,127.5C 97.6373,130.377 98.3039,133.21 98.5,136C 97.4101,138.299 96.5768,140.466 96,142.5C 99.0567,143.451 102.223,143.784 105.5,143.5C 105.734,148.401 108.4,151.068 113.5,151.5C 114.287,150.758 114.953,149.925 115.5,149C 116.332,148.312 116.998,148.479 117.5,149.5C 115.312,151.755 115.646,153.922 118.5,156C 117.833,156.667 117.167,156.667 116.5,156C 115.44,154.702 114.274,153.535 113,152.5C 112.5,152.833 112,153.167 111.5,153.5C 111.838,155.655 111.838,157.989 111.5,160.5C 110.448,160.649 109.448,160.483 108.5,160C 106.055,154.387 102.055,150.22 96.5,147.5C 95.5344,149.396 95.2011,151.396 95.5,153.5C 97.9928,153.329 99.8261,154.329 101,156.5C 100.89,160.129 100.724,163.796 100.5,167.5C 77.5,167.5 54.5,167.5 31.5,167.5C 31.5,164.833 31.5,162.167 31.5,159.5C 32.1667,159.5 32.8333,159.5 33.5,159.5C 35.7925,159.244 37.9592,159.577 40,160.5C 40.9234,159.241 41.7568,157.908 42.5,156.5C 43.1924,157.025 43.6924,157.692 44,158.5C 45.194,156.475 46.694,156.141 48.5,157.5C 49.8333,156.167 51.1667,154.833 52.5,153.5C 53.7059,151.516 53.7059,149.516 52.5,147.5C 49.7027,146.433 46.8693,146.433 44,147.5C 42.1012,147.102 40.6012,146.102 39.5,144.5C 42.0119,143.205 44.6786,142.539 47.5,142.5C 47.5,140.833 47.5,139.167 47.5,137.5C 51.3506,138.029 54.8506,137.362 58,135.5C 58.2492,136.624 58.7492,137.624 59.5,138.5C 60.7362,137.754 62.0695,137.421 63.5,137.5C 63.2011,135.396 63.5344,133.396 64.5,131.5C 67.1314,136.393 70.2981,136.727 74,132.5C 74.3826,133.056 74.8826,133.389 75.5,133.5C 76.2625,134.268 77.2625,134.768 78.5,135C 77.2888,135.893 77.2888,136.726 78.5,137.5C 78.9844,133.874 80.1511,130.54 82,127.5C 85.4813,128.523 89.648,128.523 94.5,127.5 Z"/></g>
<g><path style="opacity:1" fill="#98ceff" d="M 215.5,127.5 C 216.776,128.386 216.776,129.386 215.5,130.5C 214.438,129.575 214.438,128.575 215.5,127.5 Z"/></g>
<g><path style="opacity:1" fill="#b9eaff" d="M 294.5,132.5 C 296.337,132.639 296.67,133.306 295.5,134.5C 294.702,134.043 294.369,133.376 294.5,132.5 Z"/></g>
<g><path style="opacity:1" fill="#0f4baf" d="M 186.5,137.5 C 187.19,140.377 188.857,142.377 191.5,143.5C 194.247,143.187 196.914,143.52 199.5,144.5C 200,145.881 201,146.547 202.5,146.5C 204.334,145.246 206.334,144.579 208.5,144.5C 208.666,148.514 208.499,152.514 208,156.5C 204.209,156.861 201.042,155.361 198.5,152C 196.866,151.506 195.199,151.34 193.5,151.5C 193.5,154.167 193.5,156.833 193.5,159.5C 185.79,159.432 178.29,159.432 171,159.5C 170.193,155.551 169.693,155.551 169.5,159.5C 164.482,159.632 159.815,160.132 155.5,161C 156.438,162.063 157.438,163.23 158.5,164.5C 156.77,166.836 155.27,166.836 154,164.5C 152.961,165.244 152.461,166.244 152.5,167.5C 135.167,167.5 117.833,167.5 100.5,167.5C 100.724,163.796 100.89,160.129 101,156.5C 99.8261,154.329 97.9928,153.329 95.5,153.5C 95.2011,151.396 95.5344,149.396 96.5,147.5C 102.055,150.22 106.055,154.387 108.5,160C 109.448,160.483 110.448,160.649 111.5,160.5C 111.838,157.989 111.838,155.655 111.5,153.5C 112,153.167 112.5,152.833 113,152.5C 114.274,153.535 115.44,154.702 116.5,156C 117.167,156.667 117.833,156.667 118.5,156C 115.646,153.922 115.312,151.755 117.5,149.5C 116.998,148.479 116.332,148.312 115.5,149C 114.953,149.925 114.287,150.758 113.5,151.5C 108.4,151.068 105.734,148.401 105.5,143.5C 102.223,143.784 99.0567,143.451 96,142.5C 96.5768,140.466 97.4101,138.299 98.5,136C 98.3039,133.21 97.6373,130.377 96.5,127.5C 96.3893,126.883 96.056,126.383 95.5,126C 97.5767,125.808 99.5767,125.308 101.5,124.5C 99.3795,124.46 97.3795,123.96 95.5,123C 96.938,122.781 98.2713,122.281 99.5,121.5C 98.6034,121.331 97.6034,120.998 96.5,120.5C 95.8728,119.583 95.5394,118.583 95.5,117.5C 97.5,117.5 99.5,117.5 101.5,117.5C 101.34,119.199 101.506,120.866 102,122.5C 102.448,120.776 103.282,120.109 104.5,120.5C 103.572,119.232 103.405,117.899 104,116.5C 105.674,117.676 107.174,119.01 108.5,120.5C 109.086,120.291 109.586,119.957 110,119.5C 110.273,121.101 110.773,122.601 111.5,124C 107.02,124.293 106.687,125.126 110.5,126.5C 111.774,129.367 112.607,132.367 113,135.5C 113.667,136.167 114.333,136.833 115,137.5C 116.133,135.789 117.633,135.289 119.5,136C 118.643,136.689 117.977,137.522 117.5,138.5C 118.833,139.5 118.833,140.5 117.5,141.5C 118,141.833 118.5,142.167 119,142.5C 120.326,141.201 121.66,139.868 123,138.5C 123.202,140.256 123.702,141.922 124.5,143.5C 124.669,142.603 125.002,141.603 125.5,140.5C 127.884,143.54 130.217,146.54 132.5,149.5C 134.5,146.833 136.5,146.833 138.5,149.5C 140.031,146.635 142.197,144.302 145,142.5C 149.333,142.833 153.667,143.167 158,143.5C 158.834,138.01 160.168,133.677 162,130.5C 163.959,132.526 164.793,134.692 164.5,137C 166.5,137.667 168.5,137.667 170.5,137C 171.709,133.963 172.543,130.796 173,127.5C 174.585,126.624 175.585,125.291 176,123.5C 177.956,126.828 177.456,129.828 174.5,132.5C 174.808,133.308 175.308,133.975 176,134.5C 177.367,131.618 179.033,128.951 181,126.5C 182.903,129.955 185.237,130.288 188,127.5C 187.794,129.485 187.961,131.652 188.5,134C 188.392,135.681 187.725,136.848 186.5,137.5 Z"/></g>
<g><path style="opacity:1" fill="#c3e9fe" d="M 186.5,137.5 C 185.5,137.5 184.5,137.5 183.5,137.5C 184.246,133.69 185.246,133.69 186.5,137.5 Z"/></g>
<g><path style="opacity:1" fill="#0d47aa" d="M 299.5,151.5 C 299.5,156.833 299.5,162.167 299.5,167.5C 284.833,167.5 270.167,167.5 255.5,167.5C 255.5,164.833 255.5,162.167 255.5,159.5C 258.167,159.5 260.833,159.5 263.5,159.5C 264.142,152.873 263.309,146.54 261,140.5C 260.275,139.941 259.442,139.608 258.5,139.5C 255.288,142.487 252.455,142.153 250,138.5C 249.548,135.851 248.714,133.351 247.5,131C 245.418,131.607 243.251,132.44 241,133.5C 238.98,132.968 238.147,131.635 238.5,129.5C 232.824,129.334 227.157,129.501 221.5,130C 220.956,130.717 220.289,131.217 219.5,131.5C 220.055,129.271 221.389,127.605 223.5,126.5C 222.15,125.05 220.484,124.383 218.5,124.5C 218.045,122.633 217.378,120.8 216.5,119C 216.585,117.893 216.919,116.893 217.5,116C 224.753,114.443 232.086,114.11 239.5,115C 239.616,116.268 239.949,117.602 240.5,119C 245.03,118.807 249.697,119.14 254.5,120C 255.167,121 255.833,122 256.5,123C 262.871,123.484 269.205,123.484 275.5,123C 277.107,124.049 277.773,125.549 277.5,127.5C 282.179,127.334 286.845,127.501 291.5,128C 290.646,129.022 289.646,129.855 288.5,130.5C 287.735,134.325 287.068,138.158 286.5,142C 286.645,142.772 286.978,143.439 287.5,144C 290.146,144.497 292.813,144.664 295.5,144.5C 295.5,146.833 295.5,149.167 295.5,151.5C 296.833,151.5 298.167,151.5 299.5,151.5 Z"/></g>
<g><path style="opacity:1" fill="#93ceff" d="M 253.5,132.5 C 255.337,132.639 255.67,133.306 254.5,134.5C 253.702,134.043 253.369,133.376 253.5,132.5 Z"/></g>
<g><path style="opacity:1" fill="#0d4cb4" d="M 210.5,130.5 C 213.391,131.403 216.391,131.736 219.5,131.5C 220.289,131.217 220.956,130.717 221.5,130C 227.157,129.501 232.824,129.334 238.5,129.5C 238.147,131.635 238.98,132.968 241,133.5C 243.251,132.44 245.418,131.607 247.5,131C 248.714,133.351 249.548,135.851 250,138.5C 252.455,142.153 255.288,142.487 258.5,139.5C 259.442,139.608 260.275,139.941 261,140.5C 263.309,146.54 264.142,152.873 263.5,159.5C 260.833,159.5 258.167,159.5 255.5,159.5C 255.5,162.167 255.5,164.833 255.5,167.5C 221.167,167.5 186.833,167.5 152.5,167.5C 152.461,166.244 152.961,165.244 154,164.5C 155.27,166.836 156.77,166.836 158.5,164.5C 157.438,163.23 156.438,162.063 155.5,161C 159.815,160.132 164.482,159.632 169.5,159.5C 169.693,155.551 170.193,155.551 171,159.5C 178.29,159.432 185.79,159.432 193.5,159.5C 193.5,156.833 193.5,154.167 193.5,151.5C 195.199,151.34 196.866,151.506 198.5,152C 201.042,155.361 204.209,156.861 208,156.5C 208.499,152.514 208.666,148.514 208.5,144.5C 206.334,144.579 204.334,145.246 202.5,146.5C 201,146.547 200,145.881 199.5,144.5C 196.914,143.52 194.247,143.187 191.5,143.5C 190.849,141.174 190.182,138.841 189.5,136.5C 189.833,135.5 190.167,134.5 190.5,133.5C 192.5,136.167 194.5,136.167 196.5,133.5C 197.696,133.846 197.696,134.346 196.5,135C 197.448,135.483 198.448,135.649 199.5,135.5C 199.5,136.833 199.5,138.167 199.5,139.5C 202.394,139.042 204.894,139.709 207,141.5C 208.011,140.663 209.178,140.33 210.5,140.5C 210.33,141.822 210.663,142.989 211.5,144C 214.146,144.497 216.813,144.664 219.5,144.5C 219.5,142.833 219.5,141.167 219.5,139.5C 224.987,139.365 225.654,137.698 221.5,134.5C 218.048,136.286 214.381,136.452 210.5,135C 208.82,134.653 207.82,133.653 207.5,132C 207.894,129.72 208.894,129.22 210.5,130.5 Z"/></g>
<g><path style="opacity:1" fill="#b9f0ff" d="M 214.5,138.5 C 216.337,138.639 216.67,139.306 215.5,140.5C 214.702,140.043 214.369,139.376 214.5,138.5 Z"/></g>
<g><path style="opacity:1" fill="#69a5f0" d="M 204.5,148.5 C 208.31,149.754 208.31,150.754 204.5,151.5C 204.5,150.5 204.5,149.5 204.5,148.5 Z"/></g>
<g><path style="opacity:1" fill="#9bd2ff" d="M 47.5,149.5 C 49.337,149.639 49.6704,150.306 48.5,151.5C 47.7025,151.043 47.3691,150.376 47.5,149.5 Z"/></g>
<g><path style="opacity:1" fill="#84bdfe" d="M 33.5,159.5 C 32.8333,159.5 32.1667,159.5 31.5,159.5C 32.1667,156.833 32.8333,156.833 33.5,159.5 Z"/></g>
<g><path style="opacity:1" fill="#7bb2f8" d="M 70.5,160.5 C 71.5,160.5 72.5,160.5 73.5,160.5C 72.7542,164.31 71.7542,164.31 70.5,160.5 Z"/></g>
<g><path style="opacity:1" fill="#9cd5ff" d="M 111.5,163.5 C 113.337,163.639 113.67,164.306 112.5,165.5C 111.702,165.043 111.369,164.376 111.5,163.5 Z"/></g>
</svg>
